<svg xmlns="http://www.w3.org/2000/svg" width="370" height="370" fill="none"><rect x=".5" y=".5" width="369" height="369" rx="180" fill="#333e4d"/><path fill-rule="evenodd" d="M174.683 27.619C31.72 40.999-25.024 215.387 84.025 306.231c98.345 81.928 247.641 18.834 258.448-109.221 7.948-94.185-75.141-178.067-167.79-169.391zm31.846 29.013c104.636 17.695 145.832 146.792 70.784 221.824-62.738 62.725-168.169 46.333-208.985-32.496C18.856 150.415 100.41 38.685 206.529 56.631zm-39.322 3.653c-1.884.544-1.837.698 2.242 7.824l4.157 7.265 18.027.231 18.021.231 3.51-6.013c3.659-6.259 3.767-7.701.565-7.701-1.427 0-2.535 1.17-4.439 4.7l-2.535 4.699h-14.968l-14.964-.005-3.258-5.977c-1.791-3.294-3.526-5.946-3.849-5.895-.323.046-1.457.334-2.509.641zm7.712 4.546c3.536 6.31 10.027 8.737 10.027 3.755 0-1.816-.4-2.191-2.35-2.191-1.842 0-2.725-.698-4.064-3.206-1.273-2.386-2.34-3.278-4.177-3.489l-2.468-.282 3.032 5.413zm-16.8-2.889c-.231.369 1.432 3.879 3.689 7.793l4.106 7.121-7.41 12.944-7.41 12.939-9.375.272-9.37.272 8.112 2.078c12.183 3.119 13.065 2.991 16.057-2.411l8.621-15.043c7.271-12.534 7.025-9.897 1.78-19.059-4.192-7.321-7.122-9.625-8.8-6.906zm58.042 8.096c-4.495 8.142-4.536 7.019.529 15.679l7.569 13.175c5.942 10.564 3.084 9.405 23.173 9.405h17.601l3.577-6.244c4.044-7.07 4.141-7.516 2.073-9.363-1.391-1.236-1.734-.918-4.916 4.566l-3.423 5.9h-14.963-14.969l-1.375-2.345-7.446-12.831-6.065-10.481 3.361-5.767c3.064-5.243 3.233-5.859 1.935-6.829-2.417-1.811-3.125-1.267-6.661 5.136zm6.538 1.478l-3.433 5.962 6.999 12.39 7.004 12.395 3.634.021c3.314.025 3.633-.159 3.633-2.109 0-1.765-.416-2.139-2.351-2.145-1.657-.005-2.755-.698-3.725-2.35-11.905-20.342-10.992-17.551-7.605-23.297 3.038-5.151 2.987-4.843.924-5.946-1.447-.775-2.053-.169-5.08 5.079zm-52.362 13.052l-5.896 10.045c-8.796 14.519-8.985 15.73-2.92 18.68l3.936 1.908-1.878-3.037-1.878-3.037 2.612-4.474 7.558-13.231 4.952-8.747 14.722-.015c13.855-.015 14.774.087 15.636 1.693.641 1.195 1.791 1.714 3.818 1.714h2.904l-2.15-3.848-2.15-3.848h-17.852-17.848l-3.566 6.198zm-57.627-3.335c-1.493 1.088-1.277 1.683 3.859 10.687l5.44 9.538h3.674c3.104 0 3.674-.267 3.674-1.714 0-1.293-.57-1.708-2.355-1.708-2.074 0-2.884-.939-6.836-7.911-6.219-10.964-5.613-10.24-7.456-8.891zm-5.121 3.93c-1.442 1.591-1.437 1.77.164 4.063.919 1.319 2.936 4.802 4.485 7.742 2.622 4.977 3.018 5.341 5.763 5.341h2.945l-2.083-3.632c-9.852-17.166-8.949-16.084-11.274-13.514zm-4.972 3.848c-3.053 2.237 3.248 13.545 7.8 13.996 3.125.313 3.253-.056 1.087-3.129-.882-1.247-2.606-4.263-3.833-6.7-2.632-5.223-3.089-5.597-5.054-4.166zm106.847 1.898c-1 1-.615 3.458.714 4.561 2.396 1.991 1.821 19.664-.642 19.676-9.488.041-19.607 11.718-19.766 22.815-.062 4.437-2.135 6.582-3.346 3.468-9.221-23.739-63.148-42.839-86.696-30.706-31.328 16.135 11.566 61.704 58.078 61.704h6.024l-5.162 3.335c-23.897 15.442-36.141 52.879-29.388 89.869 2.345 12.852 2.694 13.021 15.913 7.757 36.823-14.673 59.566-40.135 61.772-69.163l.473-6.254 2.227 3.72c24.574 41.1 83.15 56.219 83.022 21.424-.087-25.154-36.167-58.44-65.473-60.41-7.328-.488-8.728-2.155-3.715-4.418 8.96-4.037 14.64-17.895 11.125-27.134-.918-2.412 14.281-12.077 17.622-11.205 1.986.523 3.946-1.534 3.53-3.699-.503-2.601-5.337-2.094-5.665.6-.21 1.703-1.853 3.032-8.128 6.567l-7.862 4.427-3.802-4.335c-4.162-4.74-10.735-8.347-15.225-8.362l-2.782-.011v-9.122c0-7.141.298-9.45 1.36-10.63 2.587-2.853-1.493-7.188-4.208-4.474zm8.195 6.228c-1.539 2.488-1.359 3.442 1.453 7.675 1.816 2.745 2.299 4.181 1.739 5.223-.667 1.241 2.987 4.278 3.859 3.211 2.14-2.616 2.083-4.258-.308-8.998-3.879-7.686-5.398-9.287-6.743-7.111zm-49.985 4.602c-1.74 2.904-3.372 5.849-3.623 6.557-.724 2.006 4.002 8.69 8.318 11.769l3.91 2.791-3.792-6.306c-4.516-7.511-4.475-7.064-1.119-13.01 1.468-2.602 2.525-4.818 2.351-4.931s-.898-.641-1.601-1.17c-1.063-.8-1.832-.051-4.444 4.299zm102.871.646c-4.275 7.414-4.331 6.177.661 14.663l8.765 14.976 4.613 7.906 9.191.005c5.059 0 9.195-.175 9.195-.39 0-3.643-2.063-4.741-8.903-4.751l-6.917-.005-3.074-5.341-7.435-12.857-4.367-7.526 2.586-4.381c2.258-3.833 2.448-4.628 1.519-6.372-1.555-2.899-1.986-2.601-5.834 4.073zm5.618 2.914l-2.144 3.843 6.989 12.38 6.994 12.374 3.638.026c3.31.026 3.633-.164 3.633-2.114 0-1.801-.4-2.134-2.55-2.134-2.14 0-2.843-.585-4.388-3.637-1.011-1.996-3.52-6.414-5.572-9.815-4.219-6.977-4.265-7.183-2.356-10.097 1.114-1.703 1.18-2.36.324-3.391-1.617-1.949-2.238-1.601-4.568 2.565zm-48.754 6.767c-1.277 1.95-1.236 2.129.775 3.448 1.889 1.242 2.176 1.247 2.622.077.401-1.036 2.032-1.308 7.8-1.308 6.681 0 7.461-.18 9.278-2.14l1.981-2.139h-10.551c-10.206 0-10.596.072-11.905 2.062zm31.826 1.144c1.739 1.765 4.562 5.711 6.27 8.768s4.845 8.425 6.964 11.929l3.854 6.372-2.284 3.971-7.415 13.067-5.131 9.096-3.849.026-3.849.03 4.275 2.535c2.35 1.395 4.659 2.539 5.131 2.544s4.855-7.008 9.74-15.57l8.882-15.576-1.534-2.586-4.7-8.142-7.225-12.616-4.065-7.054h-4.115-4.121l3.172 3.206zM70.006 131.022c-.924 2.412-.564 2.925 2.047 2.925 2.165 0 2.566-.334 2.566-2.14 0-2.498-3.71-3.129-4.613-.785zm-2.196 5.433c-.487.908-.888 1.873-.888 2.14s4.618.482 10.263.482 10.263-.215 10.263-.482c0-3.109-1.847-3.792-10.263-3.792-7.523 0-8.595.19-9.375 1.652zm-2.504 6.254c-1.504 4.012-1.971 6.331-.949 4.705.831-1.319 2.499-1.498 14.204-1.498h13.26l-1.514-2.565-1.519-2.566H77.406c-11.017 0-11.402.062-12.1 1.924zm210.298 14.068c-10.201 17.915-10.042 16.197-2.206 23.677 3.566 3.407 6.481 6.054 6.481 5.884s-1.735-3.319-3.854-6.997l-3.859-6.685 7.266-12.729 7.266-12.728 9.304-.426c9.221-.426 9.303-.447 8.595-2.35-.688-1.847-1.124-1.924-10.791-1.919h-10.079l-8.123 14.273zm-171.828 4.32c1.524 2.704 3.48 5.936 4.342 7.182 2.088 3.027 1.991 3.997-.837 8.466-1.324 2.093-4.634 7.747-7.358 12.569l-4.957 8.763H80.243 65.526l-2.012-3.632c-1.108-2.001-2.951-4.982-4.095-6.629l-2.083-2.991.467 5.048c.262 2.807 1.344 6.701 2.443 8.763l1.971 3.715 17.96-.011 17.96-.01 8.703-15.166 8.698-15.165-2.71-4.823c-2.278-4.048-9.447-10.999-11.34-10.999-.262 0 .764 2.216 2.288 4.92zm-44.017 2.031c-.867 4.341-.559 4.777 1.129 1.601 1.539-2.883 1.57-4.273.103-4.273-.38 0-.939 1.2-1.231 2.672zm217.621 3.402l-3.505 6.074 7.025 12.308 7.03 12.308h3.669c3.105 0 3.674-.262 3.674-1.708 0-1.293-.575-1.714-2.35-1.719-2.109-.005-2.956-1.062-8.128-10.158-6.702-11.785-6.497-10.759-3.208-16.341 3.105-5.263 3.008-6.838-.42-6.838-.159 0-1.863 2.734-3.787 6.074zm-160.852 1.621c1.632 2.288 2.299 2.56 6.255 2.54l4.434-.021-5.963-2.545c-3.279-1.395-6.096-2.539-6.26-2.539s.528 1.154 1.534 2.565zm-4.916 16.033l-8.708 15.258-2.514 4.36 8.733 15.31c8.693 15.242 8.744 15.309 11.916 15.57 3.043.252 3.186.149 3.186-2.349 0-2.027-.379-2.617-1.672-2.617-1.181 0-2.73-1.836-5.245-6.202l-7.338-12.56c-4.48-7.552-4.839-5.479 3.561-20.362l6.846-12.113 14.465-.247c8.662-.148 14.584-.595 14.753-1.103.457-1.38-14.84-3.878-23.661-3.858l-8.123.016-6.199 10.897zm-53.572-5.618c-.446 2.237.19 4.007 3.618 10.045l4.167 7.327 3.967.261c3.525.231 3.972.062 3.972-1.498 0-1.349-.549-1.755-2.371-1.755-2.099 0-2.945-.979-7.379-8.552-5.752-9.814-5.27-9.348-5.973-5.828zm137.699 31.747l6.086 3.504-1.673 4.946c-1.565 4.627-1.791 4.884-3.52 3.981-3.09-1.616-47.918-27.443-49.617-28.587-1.478-.995-1.349-1.313 1.976-4.92l3.556-3.858 18.555 10.718 24.637 14.216zm-84.557-12.564c-3.941 6.931-4.054 5.587 1.196 14.585l7.02 12.036c1.616 2.766 3.207 4.489 4.151 4.489 2.525 0 1.801-2.847-2.535-9.983-2.232-3.679-5.09-8.614-6.342-10.964l-2.284-4.279 2.981-5.043c2.31-3.92 2.725-5.207 1.853-5.762-2.094-1.328-2.828-.728-6.04 4.921zm178.134 1.826c.124 2.94 2.376 3.632 11.823 3.632h9.53v-2.139-2.134h-10.689c-5.881 0-10.679.287-10.664.641zM61.108 205.09c-1.18 1.18-1.355 6.536-.272 8.25.549.862 1.037.472 1.914-1.514l1.18-2.667 15.364.23 15.369.231 3.448 6.09 7.164 12.652 3.715 6.556-7.153 12.575-7.159 12.575-6.265.431-6.266.426 1.858 2.349c1.693 2.15 2.355 2.355 7.569 2.35h5.711l2.653-4.915c1.463-2.704 5.388-9.63 8.724-15.391l6.065-10.471-5.809-10.051-8.975-15.391-3.171-5.341H79.453c-12.331 0-17.616.293-18.345 1.026zm105.411 14.016c28.68 16.536 27.31 15.228 21.67 20.65l-2.884 2.771-23.912-13.775c-28.66-16.515-26.335-14.576-24.211-20.199 2.171-5.736-.723-6.777 29.337 10.553zm126.953-11.41c.657 1.776 1.308 1.945 8.523 2.171l7.816.246v-2.17-2.17h-8.524c-8.482 0-8.523.01-7.815 1.923zm-83.104 4.582c-1.591 1.595-.195 5.787 4.669 14.001l5.286 8.932-2.802 5.161c-1.54 2.837-4.921 8.722-7.507 13.072l-4.706 7.906-14.671.006c-12.741.005-14.979.21-17.031 1.564-3.746 2.468-2.263 2.709 16.836 2.709 20.593 0 17.668 1.165 23.61-9.409l7.548-13.124 4.419-7.567-5.199-9.107c-5.696-9.973-9.488-15.109-10.452-14.144zm15.112 17.166c2.796 4.756 3.084 4.982 6.635 5.177l3.72.205-2.104-1.488c-1.154-.815-4.141-3.145-6.635-5.176l-4.541-3.689 2.925 4.971zm-69.588 8.178c11.643 6.706 20.998 12.472 20.793 12.816-.211.349-2.063 1.791-4.121 3.207l-3.741 2.57-18.237-10.589c-10.032-5.823-18.196-11.02-18.15-11.539s.143-2.683.21-4.802c.175-5.151-.805-5.505 23.246 8.337zm-43.587 6.844l-7.718 13.468-4.238 7.29c-.965 1.518-.75 2.334 1.667 6.413l4.434 7.67c5.66 10.225 6.984 11.851 12.115 14.888l5.193 3.068 14.558-.005 14.558-.005 4.224-7.475 8.733-15.094c5.024-8.48 5.111-9.906.452-7.228-2.545 1.467-4.485 4.15-9.873 13.677l-6.702 11.857h-14.773-14.779l-6.619-11.328-7.677-13.011c-.888-1.426-.657-2.329 1.529-5.987l7.636-13.067c3.479-6.029 5.547-8.768 6.609-8.768 1.427 0 2.591-1.57 2.591-3.489 0-.431-1.652-.785-3.669-.785h-3.669l-4.582 7.911zm111.492.426l-9.078 15.458-4.182 7.126 3.571 6.131 6.245 10.83 5.229 9.184 2.556 4.474 8.046.015c7.271.01 8.431-.216 11.977-2.34l3.92-2.354-10.596-.426-10.597-.426-3.109-5.131c-13.147-21.691-12.767-18.125-3.587-33.778l5.983-10.261c.544-.985 2.771-1.339 9.596-1.529l8.893-.251-4.931-2.53c-3.823-1.959-6.066-2.529-9.991-2.529h-5.055l-4.89 8.337zm56.384.749c-.764.313 4.706 10.974 7.185 14.001.195.231.887-.308 1.539-1.201 1.057-1.446.836-2.277-1.991-7.475-2.987-5.479-4.136-6.387-6.733-5.325zm-16.374.816c13.526 23.302 12.598 20.193 8.277 27.689-4.695 8.142-3.905 8.229 3.428.379l6.117-6.551-2.695-4.807c-7.748-13.837-9.441-16.351-10.996-16.351a10.26 10.26 0 0 1-3.095-.575c-.826-.313-1.293-.22-1.036.216zm9.231.78c0 .62 9.283 16.848 10.115 17.684.318.313 1.221-.302 2.011-1.37 2.191-2.955-5.337-16.166-9.447-16.576-1.473-.149-2.679-.031-2.679.262zm-117.706 15.889c.411.364-1.585 1.836-4.438 3.278l-5.188 2.616-6.225-3.673c-6.707-3.961-7.327-4.946-7.476-11.872l-.082-4.032 11.33 6.515c6.235 3.581 11.669 6.808 12.079 7.168zm-44.572-3.269c-4.3 7.137-4.402 6.424 2.9 19.424l6.717 11.959 4.059.021c5.075.025 6.224-3.084 1.319-3.561-2.53-.246-3.197-1.062-8.549-10.394l-5.804-10.127 3.007-5.382c2.571-4.587 2.807-5.454 1.637-5.905-2.258-.867-2.474-.703-5.286 3.965zm110.61 1.729l-3.331 6.219 6.866 11.953 6.866 11.949 3.956.262c3.505.231 3.957.061 3.957-1.498 0-1.37-.549-1.755-2.499-1.755-2.299 0-2.982-.841-8.493-10.461l-5.993-10.456 2.93-5.33c2.863-5.208 2.689-7.101-.652-7.101-.154 0-1.776 2.796-3.607 6.218zm-41.294-3.252l-2.401 2.108 3.207.026c2.858.026 3.207-.205 3.207-2.109 0-2.693-.975-2.698-4.013-.025zm-90.488 11.569c1.35 1.411 2.894 2.565 3.433 2.565s1.524 1.016 2.186 2.252c1.283 2.396 11.099 11.672 11.705 11.067.2-.2-1.35-3.181-3.438-6.624s-4.444-7.516-5.229-9.045c-1.36-2.642-1.678-2.78-6.276-2.78H87.13l2.458 2.565zm75.735 9.194l-8.795 15.386-2.494 4.484 1.663 2.355c.913 1.298 2.458 3.94 3.438 5.874 1.37 2.709 2.417 3.648 4.526 4.068 3.915.785 3.9.503-.339-6.454-3.736-6.131-3.787-6.305-2.36-8.398.805-1.175 4.249-7.044 7.656-13.042l6.194-10.902h14.799 14.799l7.43 13.036c8.277 14.52 8.093 13.263 3.002 20.953-1.729 2.606-1.744 2.781-.261 2.765 2.95-.02 5.521-2.113 8-6.5l2.468-4.381-4.495-7.593-8.719-15.068-4.223-7.475-17.996-.005-17.991-.006-6.302 10.903zm-.164 13.241l-3.602 6.162 3.494 6.428c2.91 5.356 3.931 6.521 6.097 6.962l2.606.534-1.267-2.447c-.698-1.345-2.417-4.397-3.823-6.778l-2.555-4.335 2.976-5.315c2.863-5.125 2.909-5.356 1.324-6.346-1.499-.934-1.986-.452-5.25 5.135zm-32.385 9.399c2.32 1.077 6.276 1.939 9.956 2.165 5.367.334 6.234.626 7.199 2.432.929 1.734 6.507 4.33 7.394 3.442.149-.148-.985-2.431-2.519-5.074l-2.787-4.807-11.545.026-11.546.031 3.848 1.785zm92.511 1.601l-1.996 3.494 1.996-.606c3.222-.975 14.399-5.669 14.399-6.049 0-.189-2.792-.343-6.204-.338l-6.199.005-1.996 3.494z" fill="#fbcc0d"/></svg>