<svg version="1.2" xmlns="http://www.w3.org/2000/svg" viewBox="0 0 1640 664" width="1265" height="512"><style>.a{fill:#a3e635}</style><path class="a" d="m439.5 397h21.5v-43h21.5v21.5h21.5v21.5h21.6v-21.5h-21.6v-21.5h-21.5v-21.6h21.5v-21.5h21.6v-21.5h-21.6v21.5h-21.5v21.5h-21.5v-86.1h-21.5zm118.3 21.6h86.1v-21.6h21.6v-107.6h-21.6v64.6h-64.5v-64.6h-21.6v64.6h21.6v21.5h64.5v21.5h-86.1zm150.7-21.5h64.6v-21.5h21.5v-21.5h-21.5v21.5h-64.6v-64.6h64.6v21.5h21.5v-21.5h-21.5v-21.5h-64.6v21.5h-21.5v64.6h21.5zm107.6 0h21.5v-86.1h64.6v86.1h21.5v-86.1h-21.5v-21.5h-86.1zm150.7 0h64.6v-21.6h21.5v-64.5h-21.5v-21.6h-64.6v21.6h-21.5v64.5h21.5v-64.5h64.6v64.5h-64.6zm161.4 0h43.1v-21.5h-43.1v-64.6h21.5v-21.5h-21.5v-43h-21.5v43h-21.5v21.5h21.5v64.6h21.5zm118.4 0h21.5v-21.5h-21.5zm86.1 0h21.5v-86.1h21.5v43h21.6v-43h21.5v86.1h21.5v-86.1h-21.5v-21.5h-21.5v21.5h-21.6v-21.5h-43zm150.7 0h86.1v-21.6h-86.1v-21.5h86.1v-43h-21.6v-21.5h-64.5v21.5h64.5v21.5h-64.5v-21.5h-21.6v64.5h21.6z"/><path fill-rule="evenodd" class="a" d="m228 214.2c1.3 0 4 0.1 6 0.3 2.1 0.2 5.5 0.6 7.8 0.9 2.2 0.4 5 0.9 6.3 1.2 1.2 0.3 3.5 1 5.1 1.6 1.6 0.7 3.7 1.6 4.7 2.2 1 0.5 5.9 3.1 11 5.7 5 2.6 10.4 5.5 11.9 6.5 1.5 0.9 4.6 3.1 6.9 4.8 2.4 1.6 5.5 4 7 5.3 1.5 1.2 4.2 3.6 5.9 5.3 1.8 1.7 4.4 4.5 6 6.2 1.5 1.7 3.5 4.3 4.5 5.8 1 1.5 2.5 4.3 3.5 6.3 0.9 1.9 2.2 5.1 2.8 7 0.6 1.9 1.6 5.5 2 7.9 0.8 4 0.9 5.1 0.9 11.5 0 6.5-0.1 7.5-0.9 11.3-0.4 2.3-1.6 7.3-2.6 11-1 3.7-2.2 8.2-2.6 9.8-0.4 1.7-1.2 4.4-1.8 6-0.5 1.6-1.4 3.7-2 4.7-0.5 1-1.7 2.8-2.7 4-0.9 1.3-2.7 3.3-4 4.5-1.6 1.5-3.8 3.1-6.3 4.5-2.1 1.2-5.3 3.3-7.1 4.7-1.7 1.3-4.1 2.8-5.1 3.4-1.1 0.5-3.6 1.5-5.5 2.3-2 0.7-6.3 2.2-9.7 3.3-3.4 1.1-7.6 2.3-9.4 2.8-1.7 0.4-4.7 1-6.6 1.3-1.8 0.2-7 0.8-11.4 1.2-6.2 0.5-9.5 0.6-14.1 0.5-4.5-0.1-6.5-0.3-8.2-0.8-1.2-0.4-3.3-1-4.5-1.5-1.3-0.5-3.6-1.7-5.2-2.6-1.9-1.1-3.7-2.5-5.2-4.1-1.2-1.3-2.8-3.2-3.4-4.3-0.6-1.1-1.7-3.1-3.3-7.1v-7.3c0-5 0.1-7.8 0.4-9 0.3-1 0.9-3.4 1.4-5.3 0.6-2 1.4-4.8 1.9-6.3 0.6-1.5 1.7-4.3 2.6-6.2 0.9-1.8 2.4-4.4 3.3-5.6 1-1.2 2.9-3.3 4.3-4.7 1.4-1.3 3.3-2.9 4.3-3.6 1-0.6 3-1.7 4.4-2.4 1.4-0.6 4-1.6 5.8-2.2 1.8-0.6 4.5-1.3 6.1-1.5 1.7-0.2 4.5-0.3 6.8-0.2 2.1 0.1 4.7 0.4 5.8 0.7 1.1 0.3 2.7 1 3.7 1.4 0.9 0.5 2.2 1.4 2.9 2.1 0.7 0.7 1.3 1.5 1.3 1.8 0 0.3-0.3 0.9-1.4 2l-4.9-0.4c-2.7-0.2-6.6-0.3-8.9-0.2-2.7 0.2-4.9 0.5-6.9 1-1.6 0.4-3.8 1.1-4.8 1.6-1.1 0.4-3.1 1.4-4.5 2.2-1.4 0.8-3.5 2.2-4.7 3.2-1.2 1-2.7 2.5-3.3 3.4-0.7 0.9-1.5 2.3-2 3.2-0.4 0.9-1.2 2.8-1.6 4.2-0.5 1.4-1.5 5.2-2.4 8.4-0.8 3.2-1.6 6.5-1.7 7.3-0.2 0.8-0.3 3.6-0.3 6.3 0 4.5 0 5.2 0.7 7 0.5 1.1 1.2 2.7 1.6 3.5 0.5 0.7 1.7 2.3 2.8 3.3 1 1.1 2.6 2.4 3.5 2.8 0.8 0.5 2.4 1.2 3.5 1.6 1 0.4 2.8 0.8 3.8 1 1.3 0.2 3.7 0.2 6.7 0 4.1-0.3 5.2-0.5 9.3-1.8 4.3-1.3 4.8-1.4 6.3-1.1 0.9 0.2 3.5 0.3 5.8 0.4 2.3 0 5.4-0.2 7-0.4 1.5-0.2 4.4-0.9 6.6-1.6 2.1-0.6 5-1.5 6.4-2 1.4-0.5 3.8-1.4 5.3-2.1 1.6-0.6 3.9-1.7 5.2-2.4 1.3-0.7 4.2-2.8 6.5-4.6 2.2-1.8 4.8-3.8 5.8-4.4 0.9-0.7 2.4-1.5 3.2-1.7 0.8-0.3 2.3-0.8 3.4-1.1 1.4-0.4 2.3-0.9 3.1-1.7 0.6-0.7 2.2-3.5 3.7-6.5 1.5-2.9 2.9-6.1 3.2-7.1 0.2-1 1.1-5.4 3.5-17.9v-20l-1-4.1c-0.6-2.2-1.5-5.3-2-6.9-0.5-1.6-1.5-4.3-2.3-6-0.8-1.7-1.9-3.8-2.5-4.8-0.7-1-2.6-3.2-4.3-5-1.6-1.7-4.5-4.4-6.3-6-1.7-1.5-5.2-4.4-7.7-6.4-2.5-2-5.3-4.2-6.3-4.9-1-0.6-3.1-2-4.8-3-1.7-0.9-4.6-2.4-6.5-3.2-1.8-0.8-5-2.1-7.1-2.8-2-0.7-4.8-1.7-6.1-2.3-1.3-0.6-3.9-1.7-5.7-2.5-1.7-0.9-4.8-2.1-6.7-2.7-2-0.7-5.5-1.5-7.8-1.9-3.5-0.6-4.8-0.7-8.5-0.5-2.4 0.1-6.4 0.4-8.9 0.7-2.5 0.2-7.9 1.1-11.9 1.9-4.1 0.9-7.7 1.7-8 1.8-0.2 0.2-1.7 0.7-3.3 1.3-1.6 0.6-5.1 2.1-7.6 3.4-2.9 1.4-5.8 3.1-7.6 4.5-1.6 1.3-4.5 3.7-6.5 5.5-1.9 1.8-5.2 4.9-7.2 7-2.1 2-4.8 5.2-6.2 7-1.8 2.5-2.9 4.5-4.2 7.6-1 2.3-2.2 5.5-2.7 7.1-0.5 1.6-1.1 3.7-1.4 4.7-0.4 1-1 3.3-1.5 5.1-0.5 1.9-2.3 7.4-4.1 12.3-1.7 4.9-3.7 10.3-4.3 11.9-0.7 1.7-1.6 4.1-2.1 5.4-0.5 1.2-1.1 2.4-1.4 2.6-0.3 0.3-0.7 0.4-0.8 0.3-0.2-0.1-0.4-1.5-0.4-3.2 0-1.6 0.3-4.7 0.5-6.8 0.3-2.2 0.7-5.2 1-6.8 0.3-1.6 0.9-5 1.5-7.6 0.5-2.6 1.5-7 2.2-9.8 0.7-2.9 1.7-6.4 2.2-7.8 0.5-1.4 1.7-4.2 2.7-6.1 1-2 2.1-4.3 2.5-5.2 0.3-0.9 1-2.6 1.5-3.8 0.5-1.3 1.7-3.5 2.6-4.9 0.9-1.4 2.8-3.7 4.2-5.1 1.4-1.4 3.8-3.5 5.4-4.7 1.6-1.2 3.8-3.2 4.9-4.6 1.1-1.3 3-3.3 4.1-4.5 1.1-1.2 3.4-3 5.1-4.2 1.7-1.1 4.6-2.8 6.6-3.7 1.9-0.9 4.6-2.1 5.8-2.6 1.2-0.4 4.3-1.4 6.8-2 2.5-0.7 6.3-1.7 8.5-2.1 2.2-0.5 5-1 6.2-1.2 1.1-0.2 4.7-0.5 8-0.6 3.3-0.1 7-0.2 8.2-0.3zm-2.4 37.5c6.5 0.1 9.4 0.3 10.8 0.6 1.1 0.3 3.9 1 6.3 1.5 2.4 0.6 5.8 1.5 7.5 2.1 1.6 0.5 5.1 2 7.7 3.3 2.6 1.3 6.4 3.5 8.5 4.9 2.2 1.4 4.9 3.4 6.2 4.5 1.2 1 3.1 2.8 4.1 3.8 1 1.1 2.5 2.9 3.3 4 0.7 1.2 1.9 3.1 2.5 4.2 0.7 1.2 1.6 3.3 2.2 4.7 0.6 1.4 1.4 4 1.8 5.7 0.5 2.1 0.8 4 0.8 6.1 0 1.7-0.1 3.7-0.4 4.5-0.2 0.8-0.7 2.3-1.2 3.2-0.5 1-1.3 2.5-1.8 3.3-0.5 0.8-1.7 2.4-2.6 3.5-0.9 1.2-3 3.5-4.7 5.3-1.7 1.7-4.3 4.1-5.8 5.3-1.5 1.3-4 3-5.6 3.9-1.6 0.9-4.5 2.3-6.3 3.1-1.9 0.8-5.5 2.2-8.1 3.1-2.6 0.8-6.5 1.9-8.7 2.4-2.2 0.5-5.4 0.9-7.1 1-2.7 0.2-3.1 0.1-3.6-0.4-0.4-0.5-0.3-0.7 1.4-2.3 1-0.9 2.6-2.1 3.6-2.6 0.9-0.4 3.7-1.5 6.2-2.4 2.5-0.9 6.1-2.1 8-2.8 2-0.7 4.4-1.6 5.4-2 0.9-0.3 2.9-1.3 4.3-2.1 1.4-0.7 3.8-2.3 5.3-3.4 1.6-1.1 3.9-3 5.2-4.3 1.3-1.2 3-3.2 3.9-4.4 0.8-1.1 2.1-3.2 2.8-4.6 0.8-1.5 1.6-3.5 1.8-4.6 0.3-1 0.5-3 0.5-4.3 0-1.4-0.1-3.3-0.3-4.4-0.2-1.1-1.1-3.5-2.3-5.8-1.1-2.1-2.5-4.6-3.2-5.5-0.7-0.9-2.1-2.4-3.3-3.4-1.1-1-3.4-2.9-5.2-4.2-1.8-1.3-4.6-3.1-6.2-3.9-1.5-0.8-4.2-2-5.8-2.6-1.6-0.6-3.7-1.3-4.8-1.6-1.1-0.3-3.2-0.8-4.7-1.2-1.5-0.4-4.1-1.1-5.8-1.5-1.7-0.4-4.1-1-5.5-1.2-1.3-0.3-3.9-0.6-5.8-0.7-2.4-0.2-4.5-0.1-7.2 0.3-2.2 0.3-5.6 0.9-7.7 1.5-2.1 0.5-5.4 1.6-7.3 2.5-1.9 0.8-4.7 2.4-6.3 3.4-1.6 1.1-3.6 2.4-4.4 3.1-0.7 0.6-2 2-2.8 3.1-0.8 1-1.9 2.7-2.4 3.7-0.4 1-1.2 2.9-1.7 4.3-0.4 1.5-1.1 3.9-1.5 5.4-0.4 1.7-0.8 4.9-1 8.5-0.2 3.2-0.5 6.6-0.8 7.6-0.2 1-1.2 4-2.2 6.6-0.9 2.7-2.5 6.7-3.4 9.1-0.9 2.3-2.2 5.5-2.7 7.1-0.6 1.5-2 5.8-3.1 9.3-1.1 3.6-2.5 7.8-3.2 9.4-0.9 2.3-1.1 3.3-1.1 5.1 0 2.1 0.1 2.7 2 7.1 1.1 2.7 2.8 6.2 3.8 7.9 0.9 1.7 2.7 4.2 3.9 5.5 1.3 1.4 3.1 2.9 4.4 3.8 1.8 1.1 2.6 1.8 3.7 3.5 0.8 1.3 2 3 2.6 4 0.6 1 2.5 3.1 4.1 4.6 1.5 1.6 3.7 3.5 4.8 4.3 1.1 0.8 3.5 2.3 5.3 3.4 1.9 1.2 5.1 3.4 7.3 5.1 2.1 1.6 4.3 3.3 4.8 3.7 0.6 0.5 1.9 1.3 2.9 2 1.3 0.8 2.3 1.1 3.2 1.1 0.6 0 1.7-0.2 2.2-0.4 0.6-0.3 2.4-0.8 4-1.1 1.6-0.4 4.3-1 5.9-1.4 1.7-0.4 4.9-0.8 7.1-1 2.3-0.1 6.6-0.4 9.7-0.6 3.1-0.2 8.2-0.7 11.3-1.1 3.1-0.4 6.8-0.9 8.1-1.1 1.3-0.2 4.3-0.6 6.6-1 2.3-0.3 5-0.9 6-1.3 1-0.3 2.6-1 3.7-1.6 1.1-0.5 2.5-1.4 3.3-1.9 0.7-0.5 2-1.4 2.9-2 0.8-0.6 2.3-1.7 3.1-2.4 0.9-0.7 3.6-3 6-5 2.4-2.1 5.4-4.7 6.6-5.8 1.3-1.1 3.7-3.5 5.5-5.2 1.7-1.7 4.4-4.7 5.8-6.6 1.5-2 3.1-4.3 3.6-5.1 0.5-0.9 1.1-1.7 1.3-1.7 0.1-0.1 0.5 0 0.8 0.2 0.4 0.2 0.4 0.4 0 1.8-0.2 0.9-0.9 2.9-1.4 4.5-0.5 1.6-1 3.2-1.2 3.5-0.2 0.4-0.6 1.3-1 2.2-0.4 1-1.7 2.6-3.6 4.5-1.6 1.7-6.3 6.3-10.4 10.2-4.1 4-8.4 8-9.5 8.9-1.2 1-3.6 2.5-5.4 3.5-1.7 1-4.3 2.2-5.6 2.7-1.3 0.6-4.1 1.5-6.1 2.1-2.1 0.7-4.5 1.4-5.5 1.7-1 0.3-3.9 1-6.5 1.5-2.5 0.5-6.5 1.1-8.7 1.4-2.2 0.3-8 0.7-12.9 0.9-5.5 0.2-10.4 0.5-12.9 0.9-2.2 0.3-6 1-12.9 2.3l-2.8-1c-1.6-0.6-4.4-1.5-6.2-2.2-1.9-0.6-4.2-1.4-5-1.8-0.9-0.4-2.7-1.6-3.9-2.7-1.3-1-2.9-2.4-3.7-3-0.8-0.6-2.8-2.2-4.4-3.5-1.6-1.4-4-3.6-5.5-5-1.4-1.4-3.7-4.1-5-6-2.3-3.1-2.7-3.5-5.4-5.1-1.5-0.9-3.4-2.1-4.1-2.7-0.7-0.6-2.1-2.1-3.1-3.4-1-1.2-2.3-2.9-2.9-3.8-0.6-0.9-1.8-3.3-2.7-5.3-0.8-2.1-2-5.6-2.6-7.9-0.6-2.3-1.3-5.5-1.6-7.1-0.3-1.6-0.5-4.2-0.5-5.7 0-2.1 0.2-3.5 1-6.1 0.6-1.9 1.7-5.2 2.6-7.4 0.9-2.3 3.4-7.8 5.6-12.5 2.2-4.6 4.3-9.3 4.7-10.4 0.7-2 0.8-2.6 0.8-11.2 0-8.1 0.1-9.3 0.7-11.9 0.4-1.6 1.7-5.7 2.8-9.1 1.2-3.3 2.6-7 3.1-8.1 0.5-1.1 1.6-2.6 2.3-3.3 0.8-0.8 2.7-2.2 4.3-3.3 1.6-1.1 4.2-2.6 5.7-3.3 1.5-0.8 4.4-2.1 6.4-3 2.1-0.9 4.8-2 6.2-2.3 1.3-0.4 3.9-1.1 5.8-1.5 3.2-0.7 3.9-0.8 12.2-0.7zm-76.1 142.8c0.2 0 1.2 1.2 2.2 2.7 1 1.5 2.6 3.6 3.6 4.8 1 1.1 3.8 4.1 6.1 6.6 2.4 2.4 5.8 5.8 7.6 7.4 1.8 1.6 4.6 3.9 6.3 5.2 1.7 1.3 4.4 3.1 6.1 4 1.7 0.9 4.2 2.3 5.7 3 1.4 0.6 2.8 1.3 3.2 1.4 0.3 0.1 1.6 0.7 2.7 1.4 1.2 0.7 4.1 2 6.5 3.1 2.4 1 7.1 3.2 10.5 4.8 3.3 1.7 7 3.3 8 3.5 1.1 0.3 4.8 0.7 8.3 0.9 3.4 0.1 9.2 0.4 12.7 0.6 3.6 0.2 8.8 0.5 11.6 0.7 2.9 0.2 6.4 0.5 7.9 0.6 1.6 0.2 2.9 0.4 2.9 0.5 0.1 0.1 0.1 0.3-0.1 0.4-0.2 0.2-2.8 0.7-5.8 1.2-3 0.4-7.9 1-10.8 1.3-3 0.3-8 0.5-11.2 0.5-3.2 0-7.6-0.2-9.8-0.3-2.2-0.2-5.6-0.7-7.6-1.2-1.9-0.4-5.6-1.5-8.2-2.4-2.6-0.8-7.3-2.5-10.5-3.8-3.2-1.2-6.5-2.5-7.3-2.9-0.8-0.3-3-1.5-5-2.6-1.9-1.1-5.6-3.4-8-5-2.5-1.7-5.9-4.2-7.5-5.6-1.6-1.4-4-3.7-5.5-5.1-1.4-1.4-3.4-3.6-4.4-4.8-0.9-1.3-2.6-3.5-3.6-5-1-1.6-2.8-4.7-3.9-7-1.1-2.3-2.3-5-2.7-6.1-0.4-1.1-0.6-2.1-0.5-2.4 0.1-0.2 0.3-0.4 0.5-0.4zm79.1-169.3c1.7 0 3.9 0.1 4.9 0.3 0.9 0.2 3 0.6 4.7 1 1.7 0.3 4.1 1 5.3 1.5 1.3 0.4 3.7 1.7 5.4 2.8 1.6 1.1 4.1 2.5 5.4 3.2 1.4 0.6 3.4 1.4 4.6 1.8 1.1 0.4 3.7 1.1 5.8 1.5 2 0.4 4.8 1.2 6.1 1.7 1.3 0.6 3.4 1.5 4.5 2.2 1.2 0.6 3 1.7 4.1 2.5 1 0.7 3.3 2.6 5.1 4.2 1.8 1.6 4.4 3.9 5.8 5.2 1.4 1.4 3.7 3.7 5.1 5.2 1.4 1.6 3.2 3.8 4 4.9 0.8 1.2 2.1 3.2 2.9 4.5 0.7 1.4 2 3.9 2.7 5.7 0.8 1.7 1.8 4.8 2.3 6.8 0.5 1.9 1 4.7 1.1 6.1 0.1 1.4 0.4 4.5 0.7 6.8 0.4 3 0.4 5.5 0.3 9.2-0.1 2.7-0.5 7.1-0.8 9.8-0.5 3.6-0.9 5.5-1.6 7.4-0.6 1.4-1.7 3.8-2.5 5.2-0.8 1.4-1.9 3-2.5 3.6-0.6 0.6-2.1 1.6-3.4 2.3-1.4 0.7-3.3 1.7-4.4 2.3-1.1 0.6-2.6 1.6-3.4 2.2-0.8 0.7-3.6 3.3-6.3 5.9-4.4 4.3-5.1 4.8-7.7 6-1.6 0.7-4.7 1.9-7 2.6-2.2 0.8-5.7 1.8-7.9 2.2-3.5 0.8-4.4 0.9-9.8 0.9-4.2-0.1-6.5 0.1-7.8 0.4-0.9 0.2-3 0.8-4.5 1.2-1.5 0.5-4 1.1-5.5 1.4-1.8 0.4-4.3 0.6-7.7 0.6-3.8 0-5.6-0.2-7.3-0.6-1.2-0.3-2.7-0.9-3.4-1.2-0.6-0.3-1.7-1.1-2.4-1.8-0.7-0.8-1.7-2.1-2.1-3.1-0.5-0.9-1-2.3-1.2-3.1-0.2-0.8-0.4-2.5-0.4-3.7 0-1.8 0.4-3.5 1.8-8.3 0.9-3.3 1.9-6.6 2.2-7.4 0.3-0.8 1.1-2.5 1.8-3.9 0.6-1.3 1.8-3.4 2.7-4.6 0.8-1.3 2.1-3.1 3-4 0.9-1 2.5-2.3 3.5-2.9 1.1-0.6 3.8-1.8 6.2-2.5 2.3-0.8 5.7-1.7 7.5-2.1 1.9-0.4 4.1-0.8 4.9-1 0.8-0.1 2.4-0.3 3.5-0.5 1.2-0.1 3.2-0.4 4.5-0.6 1.4-0.3 2.9-0.8 3.4-1.1 0.4-0.4 1.1-1.1 1.3-1.6 0.3-0.6 0.6-1.6 0.7-2.4 0.2-1 0.1-1.7-0.4-2.6-0.3-0.7-1.3-1.9-2.2-2.7-1-1-3.4-2.3-6.5-3.8-2.6-1.3-6-2.7-7.4-3.2-1.4-0.4-3.5-1-4.7-1.1-1.1-0.2-3.3-0.4-4.8-0.4-1.5 0-3.6 0.2-4.7 0.3-1.1 0.2-3.1 0.8-4.5 1.3-1.4 0.6-3.7 1.6-5 2.4-1.5 0.8-3.4 2.4-5 3.9-1.5 1.4-3.2 3.4-3.9 4.4-0.8 1-1.9 2.7-2.5 3.9-0.6 1.1-1.9 4.2-2.8 6.9-0.9 2.7-2.9 10.4-4.6 17.1-2 7.9-3.2 13.2-3.3 15-0.1 1.5-0.1 4 0.1 5.5 0.2 1.5 0.7 3.9 1.1 5.3 0.5 1.4 1.5 3.5 2.2 4.7 0.7 1.1 3 3.7 4.9 5.7 3.2 3.1 4 3.7 6.7 5.1 1.7 0.8 5.1 2.1 7.6 2.9 2.5 0.8 5.2 1.5 6 1.7 0.9 0.2 3.7 0.6 6.3 0.9 2.6 0.3 5.9 0.5 7.2 0.5 1.3 0 4.9-0.3 7.9-0.5 3-0.3 7.2-0.7 9.2-1 2-0.3 5.3-0.9 7.3-1.4 1.9-0.5 6.2-1.7 9.5-2.6 3.3-0.9 8.1-2.2 10.8-2.9 2.7-0.7 5.3-1.5 6-1.7 0.6-0.3 2.8-2 4.8-3.9 2-1.9 4.9-4.3 6.3-5.3 1.4-1 3.2-2.4 3.9-3.2 0.7-0.7 1.9-2.1 2.6-3.2 0.7-1 2.6-3.5 4.1-5.5 1.8-2.2 3.4-4.6 4.3-6.4 0.7-1.6 2.3-6 3.5-9.7 1.1-3.7 2.7-8.7 3.5-11.1 1.4-4.1 1.5-4.2 3.3-4.2l-0.3 2.5c-0.1 1.3-0.5 4.1-0.9 6.2-0.3 2-1.1 5.5-1.7 7.7-0.6 2.2-1.6 5.5-2.3 7.3-0.6 1.8-1.8 4.3-2.5 5.6-0.7 1.4-2.4 4.2-3.8 6.3-1.3 2.2-3.2 5.2-4.2 6.7-1 1.6-2.4 3.6-3.1 4.4-0.7 0.8-3.9 3.7-7 6.4-3.2 2.6-6.6 5.5-7.7 6.5-1.1 0.9-2.7 2-3.5 2.5-1 0.5-2.2 0.8-3.9 1-1.3 0.1-3.8 0.4-5.6 0.6-1.8 0.3-4.8 0.9-6.8 1.3-1.9 0.4-4.5 0.9-5.6 1.1-1.2 0.2-4.8 1-8.1 1.8-3.3 0.8-7.6 1.6-9.7 2-2.9 0.4-5.5 0.6-21.1 0.6l-6.1-2.1c-3.4-1.1-7.8-2.8-9.9-3.6-2-0.9-4.6-2.2-5.8-2.9-1.1-0.6-3.1-2.1-4.3-3.1-1.3-1.1-3.6-3.6-5.2-5.6-1.6-2-3.6-4.6-4.4-5.8-0.7-1.1-1.9-3.2-2.5-4.5-1.2-2.4-1.2-2.5-1.1-6.6 0-2.3 0.2-6 0.5-8.3 0.3-2.2 1.1-6.2 1.7-9 0.7-2.7 1.8-7.3 2.6-10.2 0.8-2.8 2.3-7.8 3.4-11.1 1.1-3.3 2.5-7.4 3.2-9.2 0.7-1.8 2-4.4 2.8-5.8 0.9-1.4 2.5-3.5 3.5-4.6 1.1-1.2 2.7-2.7 3.7-3.5 1-0.7 2.8-1.9 4.2-2.7 1.3-0.7 3.7-1.8 5.3-2.4 1.6-0.6 4.1-1.4 5.6-1.7 2.1-0.4 3.8-0.5 7-0.4 3.6 0.2 4.6 0.3 6.9 1.2 1.5 0.5 3.6 1.4 4.7 1.8 1.5 0.7 2.9 1 6.4 1.4 2.4 0.2 5 0.7 5.8 1 0.7 0.3 1.9 0.9 2.6 1.3 0.8 0.4 2.1 1.5 3.1 2.4 0.9 0.9 2 2.3 2.5 3 0.4 0.7 1 2.1 1.4 3.2 0.3 1.1 0.6 2.4 0.6 3.1 0 0.6-0.2 1.9-0.5 2.9-0.3 0.9-1.1 2.9-1.8 4.3-0.9 1.7-2.1 3.3-3.5 4.7-1.5 1.6-2.5 2.3-3.7 2.7-0.9 0.3-3.6 0.8-6.1 1-2.5 0.3-5.8 0.7-7.4 1-1.6 0.2-4 0.8-5.2 1.1-1.2 0.4-3.1 1.2-4.2 1.8-1.1 0.6-3.2 2.2-4.6 3.6-1.7 1.6-3.5 3.7-4.8 5.6-1.1 1.7-2.3 3.8-2.7 4.7-0.4 0.9-1 3-1.5 4.7-0.5 2.1-0.8 4.1-0.8 5.8 0 2.2 0.2 2.9 0.8 4 0.5 1 1.2 1.5 2.9 2.4 1.7 0.9 2.9 1.3 4.6 1.5 1.5 0.1 4 0 7.4-0.3 2.8-0.3 7.3-1 9.9-1.5 2.6-0.5 5.8-1.1 7.1-1.3 1.3-0.2 4.3-0.5 6.7-0.7 2.4-0.1 5.4-0.5 6.6-0.7 1.3-0.3 3.7-1.2 5.5-2.1 1.8-0.9 4.8-2.8 6.6-4.2 1.9-1.4 5-4 7-5.9 1.9-1.8 4.7-4.3 6.3-5.6 1.5-1.3 4.7-3.8 7.1-5.5 2.4-1.9 4.6-3.7 5-4.4 0.4-0.6 0.9-2 1.2-3.2 0.3-1.1 0.7-4.5 0.9-7.6 0.2-3 0.2-7 0.1-9-0.1-1.9-0.3-4.7-0.5-6.1-0.2-1.4-0.7-3.9-1.1-5.6-0.5-1.6-1.3-3.9-1.8-5-0.6-1.1-2.2-3.9-3.6-6.3-1.5-2.4-3.7-5.9-4.9-7.8-1.8-2.7-3.2-4.4-7.4-8.5-2.9-2.8-6.6-6.2-8.3-7.5-1.7-1.2-3.6-2.6-4.3-3-0.7-0.4-2.1-1.1-2.9-1.4-0.9-0.4-5-1.4-9.1-2.4-4.1-0.9-8.6-2.1-10.1-2.7-1.5-0.6-3-1.2-3.3-1.5-0.2-0.2-0.6-0.4-0.9-0.4-0.2 0-0.9-0.3-1.6-0.7-0.6-0.3-2.4-1-3.9-1.6-2-0.7-4.2-1.2-7.9-1.7-4.2-0.5-6.3-0.6-11-0.5-4.4 0.2-6.9 0.4-10.3 1-2.5 0.5-5.7 1.3-7.1 1.7-1.4 0.5-6 2.6-10.2 4.8-4.2 2.1-8 4.1-8.5 4.5-0.6 0.4-1.6 1.2-2.4 1.8-0.8 0.6-2.9 2.8-4.8 4.9-1.8 2-4.1 4.8-5.1 6.3-0.9 1.4-2.3 3.8-3.2 5.3-0.8 1.5-2.1 4.4-2.9 6.4-0.8 2.1-2.1 6-2.9 8.7-0.8 2.8-2 6.9-2.6 9.2-0.7 2.3-1.8 6.2-2.5 8.6-0.7 2.4-1.9 7.5-2.7 11.4-0.8 4-1.7 9.3-2.1 12-0.4 3-1.2 6.8-2.1 10-0.8 2.8-1.6 6.2-1.9 7.6-0.3 1.3-0.6 4.1-0.8 6.3-0.2 2.1-0.3 6.6-0.3 10 0 4.3 0.1 6.9 0.5 8.8 0.3 1.6 0.9 3.9 1.4 5.4 0.6 1.4 2 4.5 3.3 6.9 1.2 2.4 3.3 6 4.6 7.9 1.3 2 3.3 4.7 4.4 6 1.2 1.3 4.2 4.6 6.7 7.2 2.6 2.7 5.6 6.3 6.8 7.9 1.1 1.7 2.9 4 3.9 5 1 1.1 3.1 2.8 4.8 3.9 1.7 1.2 4.8 2.9 6.8 3.8 2 1 4.7 2.1 5.8 2.5 1.2 0.3 3.6 1 5.5 1.5 1.9 0.4 5.1 1.1 7.3 1.5 2.1 0.3 4.5 0.9 5.4 1.3 1.2 0.5 2.2 1.4 3.7 3.1 1.2 1.4 2.6 2.8 3.1 3.3 0.5 0.5 1.3 1 1.7 1.2 0.6 0.3 1.5 0.2 4-0.2 1.9-0.4 5.6-0.8 8.4-1 2.7-0.2 7.8-0.5 11.2-0.7 3.5-0.2 7.7-0.5 9.3-0.6 1.7-0.2 3.7-0.5 4.5-0.7 0.9-0.2 2.3-0.6 3.2-0.8 0.9-0.2 2.7-0.7 4-1.1 1.4-0.4 3-1 3.7-1.3 0.7-0.3 2.4-1 3.7-1.5 1.5-0.6 3.3-1.1 4.7-1.2 1.3-0.1 4.3-0.8 7-1.6 2.5-0.8 5.9-2 7.4-2.6 1.5-0.7 4.9-2.4 7.6-3.8 4.4-2.4 4.8-2.5 5.3-2 0.4 0.4 0.2 0.7-2.1 2.9-1.4 1.3-4.3 3.7-6.5 5.4-2.1 1.6-4.8 3.3-5.9 3.8-1.2 0.6-3.4 1.4-4.9 1.9-1.5 0.6-3.7 1.1-5 1.1-1.2 0.1-2.9 0.3-3.7 0.4-0.8 0.1-1.9 0.4-2.4 0.7-0.5 0.3-1.2 0.7-1.4 1-0.3 0.2-1.6 0.9-2.8 1.5-1.2 0.6-2.8 1.3-3.4 1.5-0.6 0.3-2 0.8-3.1 1.1-1 0.3-2.5 0.7-3.3 0.9-0.8 0.2-3.7 0.7-6.5 0.9-2.7 0.3-5.9 0.6-7.1 0.7-1.1 0.1-5.3 0.3-9.2 0.5-3.9 0.2-9.6 0.6-12.6 0.9-4.1 0.3-5.8 0.4-6.9 0.1-1.1-0.3-2.4-1.1-5.5-3.7-2.2-1.9-4.6-3.7-5.3-4.1-0.7-0.3-3.9-1.2-7-2-3.1-0.8-6.8-1.9-8.4-2.4-1.5-0.6-4.3-1.7-6.2-2.6-2-0.8-4.8-2.3-6.3-3.3-1.5-0.9-3.9-2.6-5.2-3.7-1.3-1-5.5-5-9.3-8.9-3.8-3.8-8-8.2-9.2-9.8-1.3-1.6-3.3-4.3-4.5-6-1.2-1.7-2.9-4.5-4-6.3-1-1.7-2.5-4.8-3.4-6.8-0.9-1.9-2.1-5-2.7-6.7-0.6-1.8-1.4-4.9-1.9-6.8-0.4-2-0.9-4.8-1.1-6.3-0.2-1.5-0.4-5.9-0.4-9.8 0-6.1 0.2-7.7 1-13.3 0.5-3.6 1.2-7.6 1.5-9 0.2-1.4 0.8-4.7 1.3-7.3 0.4-2.5 1.5-7.5 2.4-10.9 0.9-3.5 2.3-8.8 3.2-11.8 0.9-3 2.1-7 2.7-8.9 0.7-1.9 1.7-5.3 2.3-7.7 0.7-2.4 1.7-6.2 2.3-8.4 0.6-2.2 1.7-5.4 2.5-7 0.8-1.6 2.2-4.2 3.3-5.8 1.1-1.6 2.8-3.8 3.7-5 1-1.1 4.6-4.6 7.9-7.7 3.4-3.1 7.2-6.6 8.5-7.6 1.4-1.1 2.9-2.3 3.4-2.6 0.6-0.4 2.7-1.6 4.9-2.7 2.1-1 5.1-2.4 6.7-2.9 1.6-0.6 3.4-1.1 3.9-1.2 0.5-0.1 1.5-0.3 2.1-0.4 0.6-0.2 2.3-0.6 3.7-0.8 1.4-0.3 3.8-0.7 5.3-0.9 1.6-0.2 5-0.6 7.6-0.9 2.7-0.3 6.3-0.6 8-0.6zm53.4 1.2c0.2 0 1.9 0.6 3.6 1.3 1.8 0.7 4.6 2.1 6.3 3 1.6 0.9 4.3 2.7 6 4 1.7 1.2 4.7 3.9 6.6 6 2 2 4.1 4.3 4.6 5.2 0.6 0.8 1.1 1.6 1.1 1.8 0 0.2-0.2 0.4-0.3 0.5-0.2 0.1-1.5-0.7-2.9-1.8-1.3-1.1-3.3-2.8-4.4-3.7-1.1-0.9-3.2-2.5-4.7-3.7-1.5-1.1-5.6-4-9-6.4-3.5-2.4-6.6-4.6-7-5-0.4-0.4-0.7-0.8-0.6-0.9 0.1-0.2 0.4-0.3 0.7-0.3zm-60.8 12.6c2.7 0 6.5 0.2 8.5 0.3 1.9 0.2 5.1 0.7 7.1 1.2 1.9 0.5 4.6 1.2 5.9 1.6 1.4 0.5 6.2 1.9 10.8 3.2 4.5 1.3 9.1 2.8 10.1 3.2 1 0.4 3.3 1.5 4.9 2.5 1.7 1 4.7 3.1 6.7 4.6 1.9 1.6 5.2 4.5 7.2 6.6 2.1 2.1 4.4 4.7 5.3 5.8 0.8 1.2 2 3.3 2.7 4.7 0.7 1.4 1.9 4.1 2.6 5.8 0.7 1.8 2.1 4.9 3.2 7 1 2 2 4.6 2.2 5.8 0.3 1.1 0.6 3.6 0.8 5.5 0.2 1.8 0.3 5.6 0.3 8.2-0.1 4.6-0.2 5-0.9 6-0.5 0.6-2.2 2.4-3.9 3.9-1.7 1.5-4.8 4.2-7 6.1-2.1 1.8-5.6 5-7.8 6.9-2.1 2-5.3 4.6-7.2 5.9-1.8 1.2-4.8 3-6.6 3.9-1.7 0.9-4.6 2.1-6.3 2.6-1.7 0.5-7 1.7-11.7 2.6-4.8 0.9-9.4 1.8-10.2 2-0.8 0.2-3 0.4-4.9 0.5-1.8 0.1-4.4 0-5.8-0.2q-2.4-0.3-3.8-1.2c-1.1-0.7-1.7-1.4-2.4-2.7-0.5-1-0.9-2.3-0.9-3 0-0.6 0.4-2.3 0.9-3.7 0.4-1.4 1.4-3.4 2-4.6 0.7-1.1 2-2.9 2.9-3.9 0.9-0.9 2.4-2.3 3.3-3.1 1-0.7 2.9-1.9 4.3-2.6 1.5-0.7 4.4-1.9 6.5-2.6 2.1-0.7 5.9-1.7 8.5-2.3 2.5-0.5 5.3-1.3 6.3-1.6 0.9-0.4 2.5-1.3 3.6-2.1 1-0.7 2.8-2.3 3.9-3.4 1-1.2 2.4-2.9 3.1-3.9 0.6-1 1.5-2.7 1.9-3.9 0.6-1.7 0.6-2.6 0.5-5.1-0.1-2.8-0.2-3.3-1.2-5.2-0.6-1.1-2.1-3.1-3.4-4.4-1.2-1.4-3.3-3.2-4.7-4-1.3-0.9-3.5-2.1-5-2.6-2.3-0.9-3-1-11.9-1.3l-2.4-1.4c-1.3-0.8-3.6-1.9-5-2.4-1.5-0.6-3.7-1.2-5.3-1.4-1.6-0.2-4.1-0.2-5.7-0.1-2 0.1-4.4 0.6-7.4 1.5-3.2 0.9-5.4 1.8-7.6 3q-3.1 1.7-5.4 3.9c-1.7 1.7-2.6 3-3.5 4.9-0.8 1.4-1.9 4.4-2.7 6.6-0.7 2.2-2.4 7.7-3.7 12.2-1.4 4.6-3.3 10.7-4.2 13.6-1 2.9-2.3 7.7-3 10.6-0.8 3-1.7 7.2-2.2 9.4-0.4 2.2-1.1 6-1.4 8.3-0.4 2.4-0.7 5-0.7 6 0 1.3 0.2 1.9 0.9 3 0.5 0.7 1.8 2.2 2.9 3.3 1 1.2 2.9 3.5 4.1 5.1 1.2 1.5 3.1 3.9 4.2 5.3 1.1 1.3 3.2 3.5 4.6 4.8 1.4 1.3 3.5 3 4.8 3.8 1.2 0.9 4.4 2.5 7.1 3.7 2.6 1.3 7.4 3.5 10.5 5.1 5.4 2.8 5.7 2.9 7.8 2.9 1.2 0 3.6-0.1 5.3-0.3 1.7-0.2 4.4-0.6 5.9-0.8 1.5-0.3 5.3-0.8 8.4-1.1 3.1-0.4 6.9-1 8.5-1.3 1.6-0.3 4.9-1.1 7.3-1.6 3.5-0.8 5.6-1.1 10.8-1.3 3.6-0.2 6.9-0.5 7.4-0.6 0.6-0.2 1.4-0.5 2-0.8 0.5-0.3 3-2 5.6-3.7 2.6-1.8 6.2-4.4 7.9-5.8 1.8-1.4 4.5-3.9 5.9-5.4 1.5-1.5 4.1-4.7 5.8-7.1 1.8-2.3 4.4-6 5.8-8.1 1.4-2.1 3.4-5.2 4.3-6.8 0.9-1.6 2-3.4 2.4-3.9 0.4-0.7 0.9-1.1 1.4-1.1 0.4 0 0.7 0.2 0.7 0.3 0 0.2-0.4 2-0.9 4-0.5 2-1.7 5.5-2.6 7.8-0.9 2.3-2.6 5.7-3.6 7.4-1.1 1.8-2.9 4.3-4 5.7-1.1 1.3-3 3.5-4.2 4.8-1.2 1.3-4 3.9-6.1 5.8-2.2 1.9-4.7 4.1-5.7 4.9-1 0.8-3.1 2.5-4.8 3.7-1.7 1.3-4 2.9-5 3.6-1.1 0.7-2.8 1.6-3.7 2-1.3 0.5-3.3 0.9-7.1 1.2-3 0.3-6.5 0.7-7.9 0.9-1.5 0.3-5.1 0.9-8.1 1.3-3 0.5-7.6 1-10.2 1.2-2.5 0.1-7.1 0.5-10.1 0.7-4.4 0.4-6.5 0.7-10 1.7-2.5 0.7-5.4 1.3-6.3 1.3-1.8 0.2-1.9 0.1-3.9-1.4-1.2-0.9-2.9-2.2-3.9-2.9-1-0.6-3-1.9-4.5-2.8-1.5-0.9-4.6-2.6-6.8-3.7-2.2-1.2-4.7-2.7-5.6-3.3-0.9-0.6-2.9-2.3-4.5-3.8-2-2-3.7-4.1-5.7-7.1-2.5-3.7-3.2-4.5-5.4-6.1-1.4-1-3.1-2.5-3.9-3.3-0.8-0.8-2.3-2.8-3.4-4.5-1.2-1.7-2.5-3.9-2.9-4.9-0.5-1-0.8-2.3-0.8-3.2 0-0.8 0.2-2.1 0.5-2.9 0.2-0.8 1.2-4.2 2.1-7.6 0.8-3.4 2-7.9 2.7-10.1 0.6-2.3 2.2-7.4 3.6-11.5 1.5-4.1 3.2-8.9 3.8-10.8 0.7-1.9 1.5-4.6 2-6.1 0.4-1.6 1.1-5.3 1.6-8.3 0.4-3 1.1-6.6 1.5-8 0.4-1.5 1.3-3.6 2.1-4.9 0.7-1.2 2.2-3.4 3.2-4.8 1.1-1.4 2.7-3.1 3.5-3.8 0.9-0.6 2.8-1.8 4.2-2.7 1.4-0.8 3.8-1.9 5.3-2.4 1.5-0.6 4.5-1.4 6.6-1.9 3.4-0.7 4.7-0.8 9.9-0.8 5.7 0 6.1 0 8.7 0.9 1.5 0.5 3.3 1.2 3.9 1.5 0.7 0.4 2.3 0.8 3.6 0.9 1.3 0.2 3.7 0.5 5.5 0.7 1.7 0.2 4.3 0.7 5.8 1.2 1.4 0.4 3.9 1.4 5.4 2.2 1.5 0.8 3.7 2.2 5 3.1 1.2 0.9 3.4 2.8 4.8 4.1 1.4 1.4 3.1 3.3 3.8 4.4 0.7 1.1 1.9 3 2.5 4.4 1.1 2.3 1.1 2.6 1.2 6.7 0.1 4 0.1 4.6-0.7 7-0.4 1.4-1.4 3.6-2.2 4.8-0.7 1.3-2.7 3.6-4.4 5.4-1.7 1.7-4 3.7-5.2 4.5-1.1 0.7-3.2 1.9-4.7 2.6-1.4 0.6-6.4 2.5-11.2 4.1-4.7 1.6-9.3 3.3-10.1 3.7-0.9 0.4-2.5 1.4-3.6 2.3-1.1 0.8-2.6 2.2-3.2 3.1-0.7 1-1.5 2.2-1.7 2.8-0.3 0.8-0.2 1.2 0.1 1.6 0.2 0.3 0.8 0.7 1.4 0.9 0.6 0.3 2 0.5 3.2 0.5 1.2 0 3.9-0.2 5.9-0.5 2.1-0.2 5.3-0.8 7.1-1.1 1.9-0.4 4.7-1.1 6.2-1.5 1.5-0.4 3.8-1.1 5.1-1.6 1.4-0.5 3.9-1.6 5.7-2.5 1.8-0.9 4.7-2.6 6.6-3.7 1.9-1.2 4.3-2.9 5.5-3.8 1.1-1 2.9-2.5 3.9-3.5 1-0.9 3.2-3.1 4.9-4.9 1.6-1.8 4-4.7 5.3-6.3 1.2-1.7 2.7-3.8 3.2-4.7 0.8-1.4 0.9-1.9 0.9-4.3-0.1-2.3-0.3-3.6-1.6-7.8-0.8-2.7-2.2-6.5-2.9-8.4-0.8-1.8-2-4.4-2.7-5.8-0.8-1.3-2.1-3.4-3-4.6-1-1.3-2.5-3.2-3.5-4.2-1-1.1-3-2.9-4.5-4.1-1.5-1.1-4.1-3.1-5.9-4.3-1.8-1.2-5-3-7-4.1-2.2-1-6.2-2.7-9.5-3.8-3.2-1.1-7.5-2.4-9.6-2.9-2-0.5-5.9-1.3-8.5-1.8-4.5-0.8-5.3-0.9-10.5-0.7-3.8 0.1-7.3 0.4-10.7 1-3.9 0.6-6.1 1.2-9.4 2.4-2.3 0.8-5.7 2.2-7.5 3-1.8 0.8-5.1 2.3-7.4 3.4-3.1 1.4-4.4 2.2-5.2 3-0.5 0.7-1.7 2.7-2.6 4.5-0.9 1.9-2.7 6-4 9.2-1.7 4.4-2.7 7.3-3.7 11.8-0.8 3.3-1.6 7-1.8 8.2-0.2 1.3-0.4 5.3-0.3 9.6 0 6.6-0.1 7.5-0.7 9.4-0.3 1.1-1.1 2.6-1.6 3.4-0.5 0.8-2.4 4.6-4.3 8.4-1.8 3.8-3.7 8-4.2 9.4-0.4 1.3-1 3.9-1.3 5.6-0.3 1.8-0.5 4.7-0.5 6.6 0 1.8 0.2 5 0.5 7.1 0.3 2 0.9 5.4 1.3 7.5 0.4 2 1.2 4.9 1.7 6.4 0.5 1.5 1.4 3.8 2.1 5 0.6 1.3 2 3.4 3 4.7 1.1 1.3 3.4 3.8 5.2 5.5 1.7 1.7 4.3 4 5.7 5.1 1.5 1.1 3 2.5 3.5 3.1 0.5 0.5 2 2.6 3.4 4.5 1.3 2 3.8 5.3 5.4 7.4 1.6 2.1 3.6 4.5 4.5 5.3 0.9 0.8 2 1.6 2.4 1.9 0.5 0.2 1.8 0.7 2.9 1.1 1.2 0.3 5 1.2 8.6 1.9 6.1 1.2 6.6 1.3 10.5 3.2 3.1 1.6 4.3 2 5.5 2 0.8 0 2.6-0.2 4-0.5 1.4-0.3 5.1-0.7 8.2-1 3.1-0.2 7.2-0.4 9.1-0.4 1.8-0.1 5.3-0.2 7.7-0.4 2.4-0.2 5.3-0.6 6.5-0.8 1.1-0.2 4.3-1 7.1-1.7 2.7-0.7 5.4-1.4 5.9-1.6 0.6-0.2 2.3-0.7 3.9-1.2 1.6-0.5 3.4-1.1 4-1.3 0.5-0.3 1.1-0.5 1.3-0.5 0.2 0 0.7-0.2 1.2-0.5 0.5-0.2 3.2-1.4 6.1-2.5 3.2-1.2 6.1-2.6 7.6-3.6 1.3-0.9 4-3.2 5.9-5.2 1.9-1.9 3.8-3.7 4.2-4 0.4-0.3 1.8-1.1 3-1.9 1.2-0.9 3.6-2.7 5.4-4.2 1.8-1.4 3.5-2.6 3.8-2.6 0.4 0 0.6 0.2 0.6 0.6 0 0.4-1.5 2.7-3.3 5.1-1.7 2.5-3.9 5.3-4.7 6.3-0.9 1-2.6 3-3.9 4.5-1.3 1.5-3.4 3.6-4.7 4.7-1.3 1.1-3.6 2.8-5.2 3.8-1.6 1-4.5 2.4-6.5 3.2-1.9 0.7-4.7 1.8-6.1 2.3-1.4 0.5-2.7 1-2.9 1.1-0.2 0.2-1.4 0.6-2.7 1-1.4 0.4-4.4 1.3-6.8 2.1-2.4 0.8-5.1 1.6-6 1.9-0.9 0.3-2.6 0.7-3.9 1-1.2 0.2-6.3 0.9-11.2 1.4-5 0.6-11.8 1.2-15.1 1.5-3.2 0.3-6.9 0.7-8 1-1.2 0.2-2.6 0.4-3.2 0.4-0.5 0-1.6-0.2-2.2-0.6-0.7-0.3-2.3-1.6-3.6-2.7-1.3-1.2-2.9-2.4-3.5-2.7-0.7-0.4-2.3-0.8-3.5-1-1.2-0.2-3.8-0.6-5.6-0.9-1.9-0.3-5.1-0.9-7.2-1.4-2.1-0.6-5.2-1.5-6.8-2.1-1.6-0.7-4.1-1.9-5.5-2.7-1.4-0.8-3-2-3.6-2.6-0.5-0.7-1.9-2.5-2.9-4.2-1-1.7-2.5-3.9-3.2-4.9-0.7-0.9-2.3-2.9-3.6-4.3-1.3-1.4-4.2-4.3-6.6-6.5-2.3-2.1-5.2-4.9-6.3-6.3-1.1-1.3-2.8-3.6-3.8-5.1-0.9-1.5-2.2-3.6-2.8-4.6-0.5-1.1-1.4-3-1.8-4.4-0.5-1.4-1-4.4-1.3-6.8-0.4-3.4-0.5-6.1-0.4-11.3 0.1-3.9 0.4-8.6 0.7-10.5 0.3-2 0.7-4.5 1-5.7 0.2-1.1 0.7-2.9 1.1-3.8 0.3-1 1.3-3.3 2.1-5.2 0.8-1.9 1.8-4.6 2.2-6 0.5-1.6 1-4.1 1.2-6.8 0.2-2.3 0.6-6 0.9-8.3 0.2-2.4 0.8-6.1 1.2-8.3 0.5-2.2 1.6-7 2.6-10.6 1-3.7 2.3-8.2 2.9-10 0.7-1.9 1.8-4.8 2.6-6.5 0.7-1.7 2.2-4.6 3.4-6.4 1.1-1.9 2.8-4.5 3.8-5.8 1-1.4 2.6-3.4 3.6-4.5 1.4-1.7 2.3-2.3 4.4-3.3 1.4-0.7 5.5-2.5 9.1-4.1 3.7-1.6 8-3.3 9.7-3.8 1.7-0.5 4.1-1 5.4-1.2 1.2-0.1 3.2-0.4 4.3-0.5 1.2-0.1 2.2-0.2 2.2-0.3 0.1 0 2.4-0.1 5-0.1z"/><path fill-rule="evenodd" class="a" d="m241.5 173c0.4 0.1 1.1 0.1 2.2 0.1 1.4 0 4.9 0.2 7.9 0.5 2.9 0.2 6.2 0.6 7.3 0.7 1.1 0.2 4 0.7 6.4 1.2 2.5 0.4 5.4 0.9 6.5 1 1.1 0.2 3.1 0.6 4.4 0.9 1.4 0.4 5.3 1.6 8.7 2.7 3.5 1.1 8.5 2.9 11.2 4 2.7 1 6.5 2.8 8.6 3.8 2 1 4.3 2.3 5.2 3 0.9 0.6 2.7 1.9 4.1 2.9 1.4 1 4.8 4 7.5 6.8 4.2 4.2 5.2 5 7.2 6 1.2 0.7 3.2 1.8 4.4 2.6 1.2 0.7 3.1 2.1 4.3 3.1 1.2 0.9 2.6 2.3 3.2 3.1 0.6 0.7 1.4 1.8 1.8 2.4 0.3 0.6 1.5 2.7 2.6 4.8 1.6 3 2.3 4.1 4.6 6.5 1.6 1.6 3.8 3.6 5.1 4.6 1.3 0.9 3 2.3 3.9 3.1 0.9 0.7 2.4 2.3 3.3 3.5 0.8 1.2 2.3 3.4 3.2 5 1 1.6 2 3.5 2.3 4.2 0.3 0.7 1.1 2.7 1.9 4.5 0.7 1.8 1.9 4.3 2.7 5.7 0.8 1.3 1.8 2.9 2.3 3.5 0.5 0.7 1.4 2 2 3 0.6 0.9 1.3 2 1.6 2.4 0.3 0.4 1.1 1.9 1.8 3.2 0.7 1.4 1.7 4 2.3 5.8 0.6 1.9 1.4 5.1 1.7 7.2 0.4 2.1 0.8 5.6 1 7.8 0.2 2.2 0.6 5.6 0.9 7.7 0.3 2 1.1 5.4 1.7 7.5 0.6 2.1 1.3 4.8 1.5 5.9 0.2 1.2 0.6 4 0.9 6.3 0.4 3 0.5 5.9 0.4 10.7-0.1 3.6-0.3 8-0.5 9.8-0.1 1.8-0.5 6-0.7 9.5-0.1 3.4-0.5 7.8-0.7 9.6-0.2 1.9-0.7 4.8-1.1 6.4-0.4 1.7-0.9 3.9-1.3 4.8-0.3 0.9-1.3 4-2.2 6.9-0.9 2.8-2 6.4-2.4 7.9-0.5 1.5-1.6 4.4-2.4 6.3-0.8 1.9-2.6 5.9-4 8.7-1.3 2.9-3.7 7.8-5.3 11-1.5 3.2-3.5 7.1-4.4 8.6-0.9 1.5-2.8 4.4-4.2 6.4-1.5 2-3.9 5.1-5.5 6.9-1.5 1.8-4.2 4.5-6 6.1-1.8 1.6-4 3.6-5 4.3-0.9 0.8-3.2 2.4-5 3.7-1.8 1.3-4.2 3.1-5.3 3.9-1.2 0.8-2.7 1.9-3.4 2.5-0.7 0.6-2.1 1.8-3.2 2.6-1.1 0.8-3 2.3-4.2 3.2-1.2 1-3 2.6-4.1 3.5-1.1 1-2.7 2.3-3.7 3-0.9 0.7-3.2 2.3-5 3.4-1.9 1.2-4.5 2.7-5.8 3.3-1.4 0.6-3.2 1.4-4 1.8-0.9 0.3-3.4 1.3-5.7 2.2-2.2 1-5.6 2.4-7.5 3.2-1.8 0.8-5.3 2.2-7.8 3-2.4 0.9-5.7 2-7.3 2.5-1.6 0.4-5.7 1.5-9 2.3-3.4 0.8-7.1 1.6-8.3 1.8-1.2 0.2-3.5 0.5-5 0.8-1.6 0.2-6.1 0.6-9.8 0.8-5.3 0.3-9.5 0.2-17.6 0-5.9-0.2-12.5-0.5-14.6-0.7-2.1-0.2-5.2-0.6-7-0.9-1.8-0.4-3.9-0.8-4.7-1.1-0.9-0.2-3.2-0.8-5.1-1.4-1.9-0.5-4.8-1.4-6.4-2-1.6-0.6-4.3-1.7-6-2.4-1.7-0.7-4.5-1.9-6.3-2.7-1.7-0.8-4.6-2.2-6.4-3-1.7-0.8-4.3-2-5.6-2.6-1.4-0.6-3.9-1.8-5.6-2.8-1.6-0.9-4.3-2.4-5.9-3.3-1.6-0.9-4.6-2.7-6.6-3.9-2-1.3-4.7-2.9-6-3.7-1.2-0.7-3.9-2.7-5.8-4.4-2-1.6-5-4.2-6.8-5.7-1.7-1.5-3.7-3.4-4.3-4.1-0.7-0.8-1.8-1.9-2.4-2.5-0.6-0.6-2.1-2.4-3.3-4.1-1.3-1.7-3-4.1-3.9-5.4-1-1.2-2.7-3.3-3.9-4.6-1.2-1.2-2.8-3-3.5-3.8-0.8-0.9-2.1-2.5-3-3.5-0.9-1.1-2.4-3-3.4-4.3-1-1.2-2.5-3.4-3.4-4.9-0.9-1.4-2.3-3.9-3.1-5.5-0.8-1.6-2.2-5-3-7.5-0.9-2.5-2.1-5.7-2.6-7-0.6-1.4-1.6-3.4-2.3-4.6-0.6-1.2-2-3.9-3-6-1-2.1-2.3-5.1-2.9-6.7-0.6-1.6-1.3-3.7-1.6-4.7-0.3-1.1-0.8-3.3-1.1-5.1-0.6-2.7-0.7-4.1-0.7-9 0-3.2 0.2-8 0.5-10.6 0.2-3 0.3-5.9 0.1-8.1-0.1-1.8-0.7-6.2-1.3-9.8-0.5-3.5-1.2-8.6-1.5-11.3-0.4-4.4-0.4-5.4 0-10 0.3-2.8 0.6-5.7 0.7-6.4 0.2-0.8 0.5-2.2 0.7-3.2 0.2-1 1-3.4 1.7-5.3 0.8-2 1.9-4.4 2.4-5.5 0.6-1.1 2-3.3 3.1-4.8 1.1-1.5 3-3.9 4.2-5.3 1.2-1.4 2.6-3.2 3.2-4 0.6-0.8 1.4-2.2 1.9-3.1 0.5-1 1.2-2.8 1.7-4 0.4-1.2 1-4.1 1.3-6.4 0.4-2.2 0.8-5.2 1-6.6 0.2-1.3 0.6-3.3 1-4.4 0.3-1.1 1.3-3.5 2.2-5.3 0.8-1.9 2.5-4.9 3.7-6.6 1.1-1.8 3.1-4.2 4.2-5.4 1.2-1.2 2.9-2.7 3.7-3.4 0.9-0.7 2.5-1.8 3.7-2.6 1.2-0.7 4.1-2.5 6.6-3.9 2.4-1.4 5.7-3.6 7.3-4.9 1.6-1.3 3.8-3.4 4.9-4.6 1.1-1.3 2.7-3.3 3.5-4.4 0.9-1.2 2-2.8 2.6-3.7 0.6-0.8 2.8-3.2 4.8-5.2 2-2 5-4.7 6.7-6 1.7-1.3 4.8-3.4 6.9-4.7 2.1-1.3 5.3-3.1 7.2-4 1.8-0.9 4.6-2 6.2-2.5 1.6-0.5 4.7-1.4 6.8-1.9 2.1-0.6 5-1.2 6.6-1.5 1.9-0.3 6.4-0.4 15.1-0.5 8.6-0.1 13.6-0.3 16.4-0.6 2.2-0.3 4.8-0.6 5.8-0.8 1-0.1 2-0.3 2.3-0.4 0.2-0.1 1.7-0.4 3.3-0.7 1.6-0.2 3.6-0.6 4.3-0.7 0.8-0.2 3.1-0.5 5.2-0.7 1.1-0.1 2-0.2 2.7-0.3 1-0.1 5.2-0.5 5.6-0.4zm-17.8 24.9c-3.5 0.2-10.5 0.9-16.2 1.6-5.4 0.7-11.2 1.5-12.8 1.8-1.6 0.3-5.5 1.4-8.6 2.3-3.1 1-6.8 2.1-8.3 2.4-1.4 0.4-3.7 1-5 1.3-1.4 0.2-3.8 0.9-5.4 1.4-1.6 0.5-3.6 1.2-4.4 1.7-0.9 0.4-2.9 2-4.9 4-1.9 1.8-4.2 4.2-5.2 5.4-0.9 1.2-2.5 2.9-3.3 3.8-0.9 0.9-2.2 2.4-2.9 3.1-0.6 0.8-3 3.2-5.3 5.4-2.2 2.1-5.3 4.8-6.8 5.9-1.6 1.1-3.3 2.3-3.9 2.7-0.6 0.4-2.1 1.2-3.3 1.9-1.3 0.7-3.5 2-4.9 3-1.5 0.9-3.2 2.5-3.9 3.3-1 1.2-1.6 2.4-2.3 4.6-0.5 1.7-1.2 4.3-1.5 5.8-0.3 1.5-0.8 3.7-1.1 4.9-0.2 1.1-1 4-1.7 6.2-0.7 2.3-2 5.9-2.9 8-0.9 2.1-2.1 4.6-2.6 5.6-0.5 0.9-1.3 2.5-1.9 3.4-0.6 0.9-1.1 1.8-1.1 1.9 0 0.2-1 1.8-2.3 3.8-1.3 1.9-2.7 4.2-3.1 5-0.5 0.9-1.4 2.7-2 4.2-0.7 1.4-1.4 3.7-1.7 5-0.3 1.5-0.5 3.8-0.5 6.1 0.1 2 0.4 5.8 0.7 8.3 0.4 2.5 0.8 5.4 1 6.4 0.1 1 0.5 3.8 0.7 6.3 0.3 2.4 0.5 5.8 0.5 7.5-0.1 1.7-0.2 4.1-0.4 5.3-0.1 1.3-0.4 4-0.6 6.2-0.2 2.6-0.2 4.5 0 6.1 0.2 1.2 0.8 4 1.4 6.1 0.7 2.2 2 5.7 3.1 8.1 1.1 2.4 2.9 6.3 3.9 8.7 1 2.5 2.2 5.6 2.8 6.9 0.6 1.3 1.6 3.8 2.4 5.4 0.7 1.6 2 3.8 2.8 5 0.8 1.2 2.3 3.3 3.5 4.7 1.1 1.3 3.1 3.7 4.5 5.2 1.3 1.5 3.5 4 4.9 5.6 1.4 1.6 2.9 3.4 3.5 4.1 0.5 0.7 1.6 2.1 2.4 3.2 0.8 1.1 1.8 2.4 2.2 2.9 0.3 0.5 1.4 2 2.4 3.4 1 1.3 2.3 2.8 2.9 3.3 0.6 0.5 1.8 1.5 2.6 2.2 0.8 0.7 2.9 2.4 4.6 3.8 1.8 1.4 4 3 4.9 3.7 0.9 0.6 3.1 1.9 4.8 2.9 1.6 1 4.5 2.6 6.2 3.7 1.8 1 4.3 2.4 5.7 3.1 1.3 0.7 4.8 2.3 7.6 3.6 2.9 1.3 5.4 2.4 5.5 2.6 0.2 0.1 3 1.4 6.3 2.9 3.3 1.5 6.9 3 8.1 3.4 1.2 0.4 2.4 0.8 2.8 0.9 0.3 0.1 2 0.6 3.6 1.1 1.7 0.5 3.6 1.1 4.2 1.3 0.6 0.2 2 0.6 3.2 0.8 1.2 0.2 3.6 0.7 5.3 1.2 1.8 0.5 3.8 1.2 4.5 1.5 0.7 0.3 2.2 0.9 3.3 1.3 1.3 0.3 3.5 0.7 5.3 0.8 1.6 0.1 4.7 0 6.7-0.2 2-0.2 5-0.7 6.7-1.1 1.7-0.4 4.4-1.2 6-1.8 1.6-0.6 4.1-1.5 5.5-2.1 1.4-0.6 4.9-2.2 7.6-3.4 2.8-1.3 6.3-2.9 7.7-3.6 1.4-0.6 4-1.7 5.8-2.4 1.8-0.7 5.1-2 7.3-2.8 2.3-0.8 5-1.8 6-2.2 1-0.4 3.2-1.3 4.7-2.1 1.6-0.7 4.7-2.2 6.8-3.4 2.1-1.2 4.7-2.8 5.8-3.5 1.1-0.8 3.1-2.3 4.5-3.4 1.4-1.1 3.7-2.9 5.1-4 1.4-1.1 3.2-2.5 4-3.1 0.8-0.5 1.9-1.3 2.3-1.7 0.4-0.4 2.4-1.7 4.3-3 1.9-1.3 4.7-3.4 6.3-4.6 1.5-1.2 3.6-3 4.7-4 1.1-1 3.7-3.9 5.8-6.4 2.1-2.4 4.6-5.5 5.5-6.8 0.9-1.3 2-3.1 2.5-3.9 0.6-0.9 1.5-2.5 2.1-3.5 0.5-1.1 1.6-2.9 2.3-4 0.9-1.4 1.8-2.3 3-3.1 0.9-0.6 2.2-1.7 2.9-2.6 0.7-0.8 1.7-2.3 2.3-3.3 0.5-1.1 1.6-3.1 2.3-4.6 0.8-1.6 1.8-4.2 2.4-6 0.5-1.8 1.1-4 1.3-5.1 0.2-1 0.5-2.7 0.7-3.8 0.2-1.1 0.4-2.8 0.6-3.8 0.1-1 0.4-3.4 0.7-5.2 0.2-1.9 0.3-4.2 0.3-5.2 0-1-0.2-4.9-0.4-8.6-0.2-3.7-0.5-9-0.8-11.7-0.2-2.8-0.5-6.6-0.6-8.5-0.1-1.8-0.4-4.2-0.6-5.3-0.3-1.1-0.7-3.7-0.9-5.8-0.3-2-0.6-3.9-0.6-4.1-0.1-0.2-0.4-3.1-0.7-6.5-0.2-3.4-0.7-7.2-0.9-8.6-0.3-1.3-0.8-3.5-1.3-4.8-0.4-1.4-1.7-4.1-2.7-6.2-1.1-2-2.3-4-2.5-4.4-0.3-0.4-1.6-2.1-2.9-3.7-1.3-1.6-3.3-4.2-4.4-5.8-1.1-1.6-2.6-3.8-3.3-4.9-0.7-1.1-2.3-3.6-3.5-5.5-1.3-1.9-2.9-4.3-3.6-5.2-0.7-0.9-3.2-3.7-5.5-6.1-2.3-2.5-6.5-7.4-9.4-11-2.9-3.6-6.2-7.4-7.3-8.4-1-1-3.8-2.9-6.2-4.3-2.4-1.5-4.7-2.9-5.2-3.3-0.5-0.4-2.5-2-4.4-3.5-1.9-1.6-3.4-3-3.4-3.1 0-0.1-1-1.1-2.2-2.1-1.2-1-2.8-2.1-3.5-2.5-0.6-0.4-2.4-1.2-3.8-1.7-1.4-0.6-4.2-1.7-6.3-2.6-2-0.8-4.6-1.9-5.8-2.5-1.2-0.5-3.6-1.4-5.3-2-1.8-0.5-4.8-1.3-6.8-1.6-1.9-0.4-6.7-0.9-10.6-1.3-3.9-0.3-8.5-0.6-10.1-0.5-1.6 0-5.5 0.1-8.5 0.2-3 0.2-8.3 0.4-11.8 0.6z"/><path class="a" d="m79 196.5c-1.9 2.6-4.1 6.1-5 8q-1.7 3.3-2.5 7.2c-0.4 2.2-0.9 5.1-1.1 6.5l-0.2 2.5c2.9 2.1 4.4 3 5.2 3.4 0.7 0.3 2.8 1.1 4.7 1.6 1.8 0.6 4.6 1.3 6.2 1.7 1.7 0.4 4.2 0.9 5.7 1.2 1.5 0.3 4.1 0.8 5.7 1.1 1.6 0.3 3.7 0.9 4.7 1.2 1 0.4 3.9 2.1 6.4 3.9 2.6 1.7 6 4.3 7.5 5.7 1.4 1.4 3.4 3.5 4.3 4.7 0.8 1.2 2.2 3.7 3 5.5 0.8 1.8 1.7 4.1 2 5.1 0.4 1 1 2.2 1.4 2.7 0.4 0.6 2.1 1.9 3.6 2.9 1.6 1.1 3.7 2.4 4.5 3 0.9 0.5 2.4 1.5 3.3 2.1 1 0.7 3.1 2.3 4.7 3.6 1.7 1.3 4.3 3.6 5.9 5.1 1.6 1.5 3.8 3.9 4.9 5.3 1.1 1.4 2.7 3.6 3.6 4.9 0.8 1.3 3.5 5.1 5.8 8.4 2.4 3.3 5 6.5 5.7 7 0.8 0.6 2.8 1.4 4.5 1.9 1.7 0.5 4.4 1.4 5.9 2 1.5 0.5 3.1 1.2 3.5 1.5 0.4 0.2 3.3 1.3 6.3 2.4 3 1.1 7 2.4 8.9 3.1 2.8 0.9 3.9 1.5 5.4 2.9 1.4 1.3 2.7 3.5 5.6 9 2.1 4 4.5 8.3 5.3 9.6 0.8 1.3 2.3 3.5 3.4 5 1.1 1.5 2.3 3.1 2.8 3.6 0.5 0.4 2.5 1.6 4.4 2.6 1.8 0.9 4.7 2.5 6.3 3.4 1.6 0.9 4 2.3 5.3 3.1 1.3 0.8 4.1 2.7 6.1 4.3 2 1.5 5.2 4.3 7 6.2 1.8 1.9 4 4.5 4.9 5.7 0.9 1.1 1.8 2.5 2.2 3 0.3 0.4 1.7 2.5 3.1 4.5 1.3 2 3.4 4.8 4.5 6.2 1.2 1.5 3.6 3.8 5.9 5.5 2.1 1.6 4.7 3.4 5.7 4.1 1 0.6 4.9 2.9 8.5 5.1 3.7 2.1 8.4 4.9 10.3 6.2 2 1.3 4.2 2.8 5 3.3 0.8 0.6 5.8 5.2 11 10.4 8 7.9 10.3 9.8 13.4 11.7 2 1.3 6 3.7 8.8 5.4 2.8 1.8 6.4 4.4 8 5.8 1.6 1.4 3.9 3.9 5.1 5.4 1.2 1.6 3.9 5.3 6.1 8.2 2.1 3 5.3 7.2 7.1 9.4 1.8 2.1 4.3 4.8 5.5 5.9 1.2 1.1 3.2 2.6 4.4 3.4 2 1.4 2.3 1.5 3.9 1.2 1-0.1 2.9-0.8 4.3-1.4 1.4-0.7 3.6-2 4.9-3.1 1.3-1 3.3-2.8 4.4-3.9 1.1-1.2 2.4-2.9 2.8-3.9 0.5-0.9 1-2.7 1.2-3.8 0.4-2 0.4-2.1-1.2-4.9-1-1.6-2.2-4-2.8-5.4-0.6-1.4-1.5-3.1-1.9-3.9-0.5-0.8-1.4-2.1-2.1-3-1.1-1.3-2.4-2.2-6.2-4.1-2.6-1.3-6.3-3.3-8.1-4.4-1.8-1.1-5.3-3.6-7.8-5.6-2.5-2-5.6-4.7-7-6.1-1.3-1.3-4.7-5.2-7.6-8.5-2.9-3.4-6.4-7.1-7.8-8.3-1.4-1.1-4.4-3.3-6.7-4.8-2.2-1.5-4.7-3.2-5.6-3.9-0.9-0.6-2.6-1.8-3.9-2.7-1.3-0.8-4-2.7-6-4.2-2-1.4-5.1-3.6-6.8-4.9-1.7-1.3-4.1-3.1-5.4-3.9-1.2-0.9-2.8-2-3.4-2.4-0.6-0.4-4.1-2.7-7.8-5.1-3.7-2.5-7.5-5.2-8.6-6-1.1-0.9-3-2.4-4.2-3.3-1.3-0.9-4.4-3.2-6.9-5-2.6-2-6.5-5.4-9.1-8-2.5-2.6-5.7-5.8-7.2-7.2-1.5-1.4-3.9-4.1-5.5-5.9-1.5-1.9-3.9-5.1-5.4-7.3-1.4-2.1-3.6-5.8-4.9-8-1.3-2.4-4-6.2-6.4-9.1-2.2-2.7-5.2-6.5-6.6-8.4-1.4-1.9-4.2-5.1-6.1-7-3-3-4.5-4.1-9.4-6.9-3.2-1.9-7.2-4.1-8.8-4.9-1.6-0.9-4.6-2.6-6.7-3.9-2-1.3-4.7-3.1-5.9-4.1-1.1-1-4.3-2.9-7-4.4-2.7-1.4-6.4-3.5-8.2-4.6-1.9-1.1-3.9-2.3-4.5-2.7-0.6-0.3-2.5-1.7-4.1-3-1.6-1.4-3.6-3.1-4.4-4-0.8-0.8-3.5-4.5-5.9-8.1-2.5-3.7-6.5-9.5-9-13-2.5-3.4-5.3-6.8-6.1-7.4-0.8-0.7-4-3-7.2-5.1-3.1-2.1-6-4.1-6.4-4.5-0.5-0.4-2.8-2-5.1-3.6-2.4-1.6-6.1-3.8-8.3-4.9-2.1-1.1-5.2-2.4-6.8-2.9-1.6-0.5-4.5-1.6-6.5-2.4-1.9-0.8-4.6-2.1-5.9-2.7-1.2-0.7-3.2-1.8-4.3-2.5-1-0.7-3.1-2.5-4.6-4.1-1.5-1.6-2.9-2.8-3.4-2.8-0.5 0-1.8 1.5-4.2 4.6z"/></svg>