<svg version="1.2" xmlns="http://www.w3.org/2000/svg" viewBox="0 0 140 140" width="140" height="140">
	<title>libredirect_full-svg</title>
	<style>
		.s0 { fill: #000000 } 
		.s1 { fill: #fbc118 } 
		.s2 { fill: #fbc117 } 
	</style>
	<g id="layer2">
		<path id="rect10261" class="s0" d="m73.8 5.2l61.1 61.2c2.2 2.1 2.2 5.6 0 7.8l-61.1 61.1c-2.2 2.2-5.7 2.2-7.8 0l-61.2-61.1c-2.1-2.2-2.1-5.7 0-7.8l61.2-61.2c1.1-1.1 2.5-1.6 3.9-1.6 1.4 0 2.8 0.5 3.9 1.6z"/>
		<path id="path1147" fill-rule="evenodd" class="s1" d="m73.8 5.2l61.1 61.2c2.2 2.1 2.2 5.6 0 7.8l-61.1 61.1c-2.2 2.2-5.7 2.2-7.8 0l-61.2-61.1c-2.1-2.2-2.1-5.7 0-7.8l61.2-61.2c1.1-1.1 2.5-1.6 3.9-1.6 1.4 0 2.8 0.5 3.9 1.6zm-7.6 4.2l-57.2 57.2c-2 2-2 5.3 0 7.3l57.2 57.2c2 2.1 5.3 2.1 7.3 0l57.2-57.2c2.1-2 2.1-5.3 0-7.3l-57.2-57.2c-1-1-2.3-1.5-3.6-1.5-1.3 0-2.7 0.5-3.7 1.5z"/>
		<path id="rect8504" class="s2" d="m9.9 70.3l60-60 59.9 60-59.9 59.9z"/>
		<path id="path983" class="s0" d="m77.2 63.7c-19.2 8.3-18.8 34.7-18.8 34.7h-13.4c0 0-0.2-38.7 29.3-46.6-2.8-5.5-4.2-7.7-2.4-8.6 2.4-1.2 27.2 4.7 28.1 8.2 0.9 3.4-18.7 21.2-21.4 21.2-2.4 0-1.7-2.8-1.4-8.9z"/>
	</g>
</svg>