<?xml version="1.0" encoding="UTF-8" standalone="no"?>
<svg xmlns:dc="http://purl.org/dc/elements/1.1/" xmlns:cc="http://creativecommons.org/ns#" xmlns:rdf="http://www.w3.org/1999/02/22-rdf-syntax-ns#" xmlns:svg="http://www.w3.org/2000/svg" xmlns="http://www.w3.org/2000/svg" xmlns:xlink="http://www.w3.org/1999/xlink" xmlns:sodipodi="http://sodipodi.sourceforge.net/DTD/sodipodi-0.dtd" xmlns:inkscape="http://www.inkscape.org/namespaces/inkscape" width="184.41228mm" height="188.32414mm" viewBox="0 0 184.41228 188.32414" version="1.1" id="svg8" inkscape:version="1.0.2 (e86c870879, 2021-01-15)" sodipodi:docname="speeklogo2.svg">
  <defs id="defs2">
    <rect x="6.7705631" y="254.34293" width="179.58366" height="30.620554" id="rect958"/>
    <rect x="2.3442709" y="246.1788" width="208.94798" height="46.688663" id="rect952"/>
    <linearGradient inkscape:collect="always" id="linearGradient886">
      <stop style="stop-color:#ff00ff;stop-opacity:0.98601145" offset="0" id="stop882"/>
      <stop style="stop-color:#e317e8;stop-opacity:1" offset="1" id="stop884"/>
    </linearGradient>
    <linearGradient inkscape:collect="always" id="linearGradient853-3">
      <stop style="stop-color:#40c8f0;stop-opacity:1" offset="0" id="stop849"/>
      <stop style="stop-color:#e317e8;stop-opacity:1" offset="1" id="stop851"/>
    </linearGradient>
    <linearGradient inkscape:collect="always" xlink:href="#linearGradient853-3" id="linearGradient855" x1="20.53936" y1="149.46793" x2="170.41721" y2="149.46793" gradientUnits="userSpaceOnUse" gradientTransform="translate(-14.006253,-33.871209)"/>
    <linearGradient inkscape:collect="always" xlink:href="#linearGradient886" id="linearGradient875" x1="176.40327" y1="113.51394" x2="205.20897" y2="113.51394" gradientUnits="userSpaceOnUse" gradientTransform="translate(-14.006253,-33.871209)"/>
    <linearGradient inkscape:collect="always" xlink:href="#linearGradient886" id="linearGradient926" x1="177.11594" y1="190.19527" x2="205.01733" y2="190.19527" gradientUnits="userSpaceOnUse" gradientTransform="translate(-14.006253,-33.871209)"/>
  </defs>
  <sodipodi:namedview id="base" pagecolor="#ffffff" bordercolor="#666666" borderopacity="1.0" inkscape:pageopacity="0.0" inkscape:pageshadow="2" inkscape:zoom="0.33788412" inkscape:cx="329.37811" inkscape:cy="525.08981" inkscape:document-units="mm" inkscape:current-layer="layer1" inkscape:document-rotation="0" showgrid="false" showguides="true" inkscape:guide-bbox="true" inkscape:window-width="1920" inkscape:window-height="1039" inkscape:window-x="0" inkscape:window-y="15" inkscape:window-maximized="1" fit-margin-top="0" fit-margin-left="0" fit-margin-right="0" fit-margin-bottom="0"/>
  <metadata id="metadata5">
    <rdf:RDF>
      <cc:Work rdf:about="">
        <dc:format>image/svg+xml</dc:format>
        <dc:type rdf:resource="http://purl.org/dc/dcmitype/StillImage"/>
        <dc:title/>
      </cc:Work>
    </rdf:RDF>
  </metadata>
  <g inkscape:label="Layer 1" inkscape:groupmode="layer" id="layer1" transform="translate(-6.8693211,-16.933955)">
    <path style="fill:url(#linearGradient855);fill-opacity:1;stroke:#000000;stroke-width:0;stroke-linecap:butt;stroke-linejoin:miter;stroke-miterlimit:4;stroke-dasharray:none;stroke-opacity:1" d="M 6.8693224,66.557772 155.51122,25.936197 v 53.898451 l -7.03762,4.06318 7.80506,4.50625 V 172.30818 L 33.307895,205.2581 v -53.49614 l 9.218999,-5.3226 -8.84533,-5.10685 V 82.426228 Z" id="path24"/>
    <path style="fill:#000000;fill-opacity:1;stroke:none;stroke-width:0;stroke-linecap:butt;stroke-linejoin:miter;stroke-miterlimit:4;stroke-dasharray:none;stroke-opacity:1" d="M 18.777061,67.536402 150.64113,32.203534 v 44.167804 l -13.10623,7.56689 13.26625,7.65927 V 168.21663 L 38.916268,198.19609 V 154.15942 L 51.10263,147.12363 38.420524,139.80161 V 79.318908 Z" id="path857"/>
    <path style="fill:#ffffff;stroke:none;stroke-width:0;stroke-linecap:butt;stroke-linejoin:miter;stroke-miterlimit:4;stroke-dasharray:none;stroke-opacity:1" d="M 34.819002,69.820382 144.48424,40.435671 V 69.980882 L 71.612521,89.506798 V 106.41716 L 120.51576,93.313588 c 0,0 23.71739,-6.22098 23.93734,16.336202 0.22102,22.66625 0.0616,54.35349 0.0616,54.35349 L 44.093468,190.91107 v -29.55206 l 71.866902,-19.25667 v -17.47375 c 0,0 0,0 -51.132501,13.56882 -3.163439,0.83947 -6.716141,0.20674 -9.77094,-0.9681 -3.004487,-1.1555 -5.845555,-3.15329 -7.771512,-5.73259 -1.644853,-2.20284 -2.808816,-5.00535 -2.808816,-7.75454 V 75.069532 Z" id="path859" sodipodi:nodetypes="ccccccscccccsssscc"/>
    <path style="fill:#cccccc;stroke:none;stroke-width:0.264583px;stroke-linecap:butt;stroke-linejoin:miter;stroke-opacity:1" d="M 144.4893,55.636113 57.686352,78.894888 V 124.71003 L 71.612521,106.41716 V 89.506798 L 144.71321,69.919532 Z" id="path863"/>
    <path style="fill:#cccccc;stroke:none;stroke-width:0.264583px;stroke-linecap:butt;stroke-linejoin:miter;stroke-opacity:1" d="m 115.96037,124.62859 -46.952272,12.58082 c 0,0 -5.255975,1.22207 -8.618799,1.15353 -4.362845,-0.0889 -8.908662,-3.10769 -8.908662,-3.10769 l 6.058578,-10.94216 69.660655,-18.66551 c 0,0 5.75998,-1.66722 7.47069,-3.89427 1.3162,-1.71346 2.28165,-7.110762 2.28165,-7.110762 0,0 2.26727,1.2756 3.41731,2.55514 3.72832,4.148132 4.06171,11.742272 4.06171,11.742272 l 0.0835,55.06332 -100.421232,26.90779 0.242993,-13.91423 85.026139,-22.78268 v -49.46429 z" id="path865" sodipodi:nodetypes="ccscccscsccccccc"/>
    <path style="fill:url(#linearGradient875);fill-opacity:1;stroke:#000000;stroke-width:0;stroke-linecap:butt;stroke-linejoin:miter;stroke-miterlimit:4;stroke-dasharray:none;stroke-opacity:1" d="m 163.62062,24.790238 27.4498,-7.856282 V 134.89084 l -27.4498,7.25265 z" id="path867" sodipodi:nodetypes="ccccc"/>
    <path style="fill:url(#linearGradient926);fill-opacity:1;stroke:none;stroke-width:0.264583px;stroke-linecap:butt;stroke-linejoin:miter;stroke-opacity:1" d="m 163.62062,149.12696 27.66098,-6.64056 v 21.86021 l -27.66098,6.48643 z" id="path918" sodipodi:nodetypes="ccccc"/>
    <text xml:space="preserve" id="text950" style="font-style:normal;font-variant:normal;font-weight:normal;font-stretch:normal;font-size:50.8px;line-height:1.25;font-family:Quicksand;-inkscape-font-specification:Quicksand;letter-spacing:0px;word-spacing:0px;white-space:pre;shape-inside:url(#rect952);fill:#000000;fill-opacity:1;stroke:none;"/>
  </g>
</svg>