<?xml version="1.0" standalone="no"?>
<!DOCTYPE svg PUBLIC "-//W3C//DTD SVG 20010904//EN"
 "http://www.w3.org/TR/2001/REC-SVG-20010904/DTD/svg10.dtd">
<svg version="1.0" xmlns="http://www.w3.org/2000/svg"
 width="963.000000pt" height="963.000000pt" viewBox="0 0 963.000000 963.000000"
 preserveAspectRatio="xMidYMid meet">

<g transform="translate(0.000000,963.000000) scale(0.100000,-0.100000)"
fill="#000000" stroke="none">
<path d="M4480 9618 c-1012 -70 -1976 -461 -2775 -1127 -116 -97 -469 -450
-566 -566 -879 -1054 -1272 -2387 -1098 -3723 120 -926 490 -1768 1098 -2497
97 -116 450 -469 566 -566 729 -608 1571 -978 2497 -1098 1149 -150 2318 125
3288 772 280 186 460 336 726 601 265 266 415 446 601 726 1083 1623 1083
3727 0 5350 -186 280 -336 460 -601 726 -266 265 -446 415 -726 601 -887 592
-1950 875 -3010 801z m723 -1113 c38 -8 101 -30 140 -49 143 -70 239 -168 323
-328 l45 -88 152 0 153 0 124 -128 c376 -385 511 -521 567 -573 l61 -58 49 16
c68 22 257 21 348 -1 126 -31 210 -79 305 -175 134 -136 193 -275 192 -456 0
-193 -70 -356 -208 -484 -70 -66 -206 -138 -304 -163 -87 -21 -262 -15 -340
11 -213 73 -374 243 -442 464 -17 58 -20 86 -16 190 4 105 9 133 36 206 18 47
32 92 32 101 0 37 -607 665 -652 676 -55 12 -72 0 -108 -82 -19 -43 -49 -97
-67 -121 -18 -24 -33 -48 -33 -53 0 -15 54 -132 615 -1335 290 -621 556 -1193
592 -1270 36 -77 116 -248 178 -380 62 -132 181 -388 266 -569 84 -180 160
-338 169 -349 19 -23 -20 -48 410 257 113 80 207 141 208 135 2 -5 -87 -185
-198 -400 l-202 -391 17 -41 c77 -185 87 -222 92 -322 6 -128 -13 -222 -68
-335 -56 -115 -179 -238 -289 -292 -116 -56 -197 -72 -342 -66 -102 5 -135 10
-193 33 l-70 27 -360 -366 -360 -366 -166 0 -165 0 -37 -77 c-144 -302 -459
-461 -759 -384 -189 49 -358 189 -443 368 l-35 73 -187 0 -188 1 -330 320
c-181 177 -354 341 -383 366 l-52 46 -83 -28 c-108 -37 -297 -46 -397 -21
-248 64 -437 255 -490 498 -17 75 -8 283 15 365 l17 62 -268 263 c-148 146
-315 309 -371 363 l-103 98 0 76 c0 42 -3 127 -7 189 l-6 112 -61 30 c-138 66
-254 179 -321 315 -54 109 -68 181 -62 310 6 129 37 230 96 322 54 84 176 193
269 241 l79 41 6 113 c4 62 7 154 7 203 l-1 90 373 366 372 365 -20 60 c-15
48 -19 87 -19 214 0 148 2 158 29 223 81 193 236 340 422 403 74 24 88 26 214
22 112 -4 149 -10 218 -32 l83 -27 102 95 c56 52 228 216 381 365 l279 271
198 0 198 0 48 92 c67 130 175 239 293 296 141 68 290 87 433 57z"/>
<path d="M4963 8147 c-51 -19 -115 -79 -148 -138 -26 -46 -30 -64 -30 -129 0
-64 4 -83 30 -129 37 -66 105 -127 159 -142 58 -16 165 -14 208 4 52 22 126
93 154 149 31 61 32 145 3 222 -24 65 -109 150 -167 166 -49 13 -169 12 -209
-3z m155 -265 l2 -203 -42 3 -43 3 -6 140 c-3 77 -7 141 -8 141 0 1 -13 5 -27
8 -16 4 -24 12 -22 23 4 21 108 94 128 91 13 -3 15 -35 18 -206z"/>
<path d="M4020 7464 c-135 -129 -292 -281 -349 -338 l-104 -104 24 -79 c34
-111 34 -303 0 -413 -49 -160 -169 -299 -327 -382 -111 -58 -188 -78 -297 -78
-97 0 -165 12 -252 43 l-59 21 -289 -295 c-360 -366 -387 -398 -387 -448 0
-45 12 -57 95 -99 77 -38 173 -111 226 -170 154 -173 186 -531 68 -753 -60
-112 -231 -251 -362 -293 -14 -4 -17 -17 -17 -64 l0 -59 242 -247 c236 -242
419 -416 437 -416 5 0 29 39 54 88 37 72 498 1056 742 1582 34 74 145 311 245
525 101 215 213 455 250 535 224 484 568 1216 601 1280 21 42 39 79 39 82 0 4
-22 36 -48 71 -27 35 -67 102 -90 149 l-42 85 -62 7 c-33 3 -68 6 -77 6 -9 -1
-126 -107 -261 -236z"/>
<path d="M2915 7000 c-65 -13 -92 -27 -139 -70 -82 -75 -112 -200 -72 -294 26
-58 99 -131 158 -156 102 -44 229 -14 301 71 166 194 -2 497 -248 449z m102
-80 c43 -26 56 -76 51 -213 -3 -108 -3 -109 -36 -138 -24 -22 -42 -29 -73 -29
-53 0 -97 24 -106 58 -10 36 -10 249 0 284 15 54 104 75 164 38z"/>
<path d="M2934 6846 c-8 -45 -1 -232 9 -242 18 -18 27 26 27 133 0 61 -3 118
-6 127 -10 26 -23 18 -30 -18z"/>
<path d="M6940 6931 c-163 -50 -247 -209 -193 -367 22 -66 101 -145 167 -167
135 -46 280 13 342 139 87 178 -46 406 -235 403 -31 0 -67 -4 -81 -8z m142
-100 l33 -29 0 -142 0 -142 -28 -24 c-36 -31 -71 -39 -115 -28 -54 14 -72 46
-79 145 -13 187 14 249 106 249 42 0 56 -5 83 -29z"/>
<path d="M6985 6766 c-9 -44 -3 -222 8 -232 20 -20 27 20 25 136 -2 84 -7 125
-15 127 -7 3 -15 -10 -18 -31z"/>
<path d="M5035 6502 c-45 -92 -259 -551 -493 -1052 -93 -201 -218 -467 -276
-592 -58 -125 -106 -230 -106 -233 0 -3 414 -5 920 -5 506 0 920 2 920 4 0 4
-211 461 -445 961 -428 917 -457 979 -474 989 -5 3 -26 -29 -46 -72z"/>
<path d="M1733 4990 c-82 -17 -155 -71 -201 -149 -24 -41 -27 -56 -27 -136 0
-103 16 -144 82 -207 57 -55 125 -83 203 -82 81 1 125 20 191 81 61 57 87 104
95 176 22 185 -161 354 -343 317z m85 -289 l2 -202 -42 3 -43 3 -6 140 c-3 77
-7 141 -8 141 0 1 -12 5 -26 8 -14 4 -25 12 -25 18 0 13 30 48 41 48 5 0 25
11 45 25 21 14 42 24 48 22 7 -2 12 -73 14 -206z"/>
<path d="M3782 3823 c-6 -16 -76 -167 -156 -337 -80 -170 -148 -318 -152 -328
-3 -12 12 -44 44 -93 28 -40 60 -99 71 -130 45 -120 53 -296 20 -421 -12 -43
-23 -88 -26 -100 -4 -16 63 -85 342 -352 l347 -332 68 0 68 0 55 113 c50 102
64 122 139 192 99 93 167 128 305 157 158 33 339 11 472 -56 95 -49 202 -168
266 -296 41 -83 50 -90 111 -90 52 0 53 0 116 69 35 38 151 161 258 274 108
112 221 233 253 269 l56 65 -36 99 c-94 260 -34 511 174 726 l45 46 -128 276
-128 276 -1287 0 -1287 0 -10 -27z"/>
<path d="M6953 2982 c-126 -45 -196 -142 -196 -274 0 -153 107 -264 265 -276
93 -6 148 11 209 66 130 117 140 282 24 410 -72 80 -198 111 -302 74z m142
-76 c53 -23 60 -45 60 -194 l0 -134 -34 -30 c-31 -28 -39 -30 -88 -26 -62 5
-81 20 -93 74 -13 54 -12 211 1 257 16 59 83 82 154 53z"/>
<path d="M7026 2844 c-3 -9 -6 -66 -6 -127 0 -107 9 -151 27 -133 10 10 17
197 9 242 -7 36 -20 44 -30 18z"/>
<path d="M2854 2947 c-152 -73 -215 -237 -145 -382 53 -110 144 -169 261 -169
110 0 206 59 258 158 34 67 37 177 5 247 -48 107 -131 162 -253 167 -63 2 -83
-1 -126 -21z m194 -101 c26 -26 27 -31 30 -161 l4 -135 -36 -36 c-35 -35 -39
-36 -88 -32 -74 8 -93 33 -101 134 -3 44 -2 110 2 148 6 59 12 73 36 94 39 33
114 28 153 -12z"/>
<path d="M2945 2754 c-12 -111 9 -256 30 -203 11 29 1 262 -12 266 -7 3 -14
-19 -18 -63z"/>
<path d="M4946 1820 c-81 -26 -154 -110 -176 -202 -49 -200 100 -372 306 -355
75 6 132 36 188 98 54 59 70 101 70 189 0 85 -15 128 -64 184 -58 66 -112 90
-209 93 -47 1 -99 -2 -115 -7z m158 -102 c3 -13 6 -105 6 -205 l0 -183 -45 0
-45 0 0 94 c0 140 -8 186 -36 198 -34 16 -30 44 9 64 17 9 43 25 56 35 31 25
47 24 55 -3z"/>
</g>
</svg>
